<svg width="32" height="32" viewBox="0 0 32 32" fill="none" xmlns="http://www.w3.org/2000/svg">
<rect width="32" height="32" rx="16" fill="#FF9900"/>
<path d="M14.7361 17.2701C14.7969 17.9028 14.8999 18.3731 15.0416 18.6833C15.1851 18.9926 15.4399 19.1468 15.8076 19.1468C15.8764 19.1468 15.9379 19.1361 15.9989 19.1236C16.0614 19.1361 16.1226 19.1468 16.1919 19.1468C16.5586 19.1468 16.8141 18.9926 16.9569 18.6833C17.0994 18.3731 17.2006 17.9028 17.2626 17.2701L17.5891 12.3846C17.6499 11.4323 17.6809 10.7491 17.6809 10.3343C17.6809 9.76981 17.5336 9.32931 17.2381 9.01306C16.9416 8.69681 16.5521 8.53906 16.0696 8.53906C16.0439 8.53906 16.0246 8.54481 15.9994 8.54581C15.9754 8.54481 15.9556 8.53906 15.9306 8.53906C15.4471 8.53906 15.0584 8.69681 14.7624 9.01306C14.4666 9.32981 14.3184 9.77056 14.3184 10.3346C14.3184 10.7493 14.3486 11.4326 14.4104 12.3848L14.7361 17.2701ZM16.0116 20.9326C15.5431 20.9326 15.1451 21.0803 14.8146 21.3758C14.4844 21.6716 14.3189 22.0306 14.3189 22.4521C14.3189 22.9278 14.4864 23.3023 14.8189 23.5743C15.1529 23.8463 15.5424 23.9823 15.9876 23.9823C16.4409 23.9823 16.8361 23.8483 17.1741 23.5796C17.5116 23.3116 17.6804 22.9351 17.6804 22.4526C17.6804 22.0311 17.5189 21.6721 17.1959 21.3763C16.8729 21.0803 16.4781 20.9326 16.0109 20.9326" fill="white"/>
</svg>
