<svg width="20" height="21" viewBox="0 0 20 21" fill="none" xmlns="http://www.w3.org/2000/svg">
<g id="Check">
<path id="Vector" d="M7.86395 15.0897C7.75414 15.0897 7.6512 15.0724 7.55512 15.0378C7.45904 15.0037 7.36983 14.9455 7.28748 14.8632L3.7463 11.322C3.59532 11.171 3.52312 10.9753 3.52971 10.7348C3.53685 10.4949 3.61591 10.2995 3.76689 10.1485C3.91787 9.9975 4.11002 9.92201 4.34336 9.92201C4.57669 9.92201 4.76885 9.9975 4.91983 10.1485L7.86395 13.0926L14.8434 6.11319C14.9943 5.96221 15.1901 5.88672 15.4305 5.88672C15.6705 5.88672 15.8659 5.96221 16.0169 6.11319C16.1679 6.26417 16.2434 6.45962 16.2434 6.69954C16.2434 6.94001 16.1679 7.13574 16.0169 7.28672L8.44042 14.8632C8.35806 14.9455 8.26885 15.0037 8.17277 15.0378C8.07669 15.0724 7.97375 15.0897 7.86395 15.0897Z" fill="#141617"/>
</g>
</svg>
