<svg width="32" height="32" viewBox="0 0 32 32" fill="none" xmlns="http://www.w3.org/2000/svg">
<g id="Check small">
<rect width="32" height="32" rx="16" fill="#3B82FF"/>
<path id="Vector" d="M13.3331 18.1357L21.1997 10.269C21.4442 10.0246 21.7553 9.90234 22.1331 9.90234C22.5109 9.90234 22.822 10.0246 23.0664 10.269C23.3109 10.5135 23.4331 10.8246 23.4331 11.2023C23.4331 11.5801 23.3109 11.8912 23.0664 12.1357L14.2664 20.9357C13.9997 21.2023 13.6886 21.3357 13.3331 21.3357C12.9775 21.3357 12.6664 21.2023 12.3997 20.9357L8.93307 17.469C8.68863 17.2246 8.56641 16.9135 8.56641 16.5357C8.56641 16.1579 8.68863 15.8468 8.93307 15.6023C9.17752 15.3579 9.48863 15.2357 9.86641 15.2357C10.2442 15.2357 10.5553 15.3579 10.7997 15.6023L13.3331 18.1357Z" fill="white"/>
</g>
</svg>
