<svg width="20" height="20" viewBox="0 0 20 20" fill="none" xmlns="http://www.w3.org/2000/svg">
<g id="Check box" clip-path="url(#clip0_902_14971)">
<path id="Vector" d="M15.6472 2.58594H4.11776C3.21188 2.58594 2.4707 3.32711 2.4707 4.233V15.7624C2.4707 16.6683 3.21188 17.4095 4.11776 17.4095H15.6472C16.5531 17.4095 17.2942 16.6683 17.2942 15.7624V4.233C17.2942 3.32711 16.5531 2.58594 15.6472 2.58594ZM8.82012 13.5306C8.49894 13.8518 7.98012 13.8518 7.65894 13.5306L4.70247 10.5742C4.38129 10.253 4.38129 9.73417 4.70247 9.413C5.02364 9.09182 5.54247 9.09182 5.86364 9.413L8.23541 11.7848L13.9013 6.11888C14.2225 5.7977 14.7413 5.7977 15.0625 6.11888C15.3836 6.44006 15.3836 6.95888 15.0625 7.28006L8.82012 13.5306Z" fill="#141617"/>
</g>
<defs>
<clipPath id="clip0_902_14971">
<rect width="19.7647" height="19.7647" fill="white" transform="translate(0 0.117188)"/>
</clipPath>
</defs>
</svg>
