<svg width="20" height="21" viewBox="0 0 20 21" fill="none" xmlns="http://www.w3.org/2000/svg">
<g id="mdi:clock-arrow">
<path id="Vector" d="M11.2526 7.66667C11.2526 7.39052 11.0287 7.16667 10.7526 7.16667H10.5026C10.2265 7.16667 10.0026 7.39052 10.0026 7.66667V11.0486C10.0026 11.2251 10.0957 11.3886 10.2474 11.4786L13.1398 13.1951C13.3771 13.3359 13.6836 13.2579 13.8247 13.0208L13.9134 12.8716C14.0547 12.6342 13.9767 12.3272 13.7392 12.1861L11.4972 10.8537C11.3455 10.7636 11.2526 10.6002 11.2526 10.4238V7.66667ZM10.8359 3C8.84681 3 6.93916 3.79018 5.53264 5.1967C4.24436 6.48498 3.47315 8.19368 3.35259 10.0003C3.3342 10.2758 3.11208 10.5 2.83594 10.5H2.02825C1.5849 10.5 1.36088 11.0342 1.67161 11.3504L3.78285 13.499C3.97742 13.697 4.29606 13.6986 4.4926 13.5026L6.64649 11.354C6.96208 11.0392 6.73913 10.5 6.29338 10.5H5.5026C5.22646 10.5 5.00038 10.2757 5.02401 10.0006C5.14118 8.63646 5.73553 7.35083 6.71115 6.37521C7.80511 5.28125 9.28884 4.66667 10.8359 4.66667C12.383 4.66667 13.8668 5.28125 14.9607 6.37521C16.0547 7.46917 16.6693 8.9529 16.6693 10.5C16.6693 12.0471 16.0547 13.5308 14.9607 14.6248C13.8668 15.7188 12.383 16.3333 10.8359 16.3333C9.40803 16.3333 8.09836 15.8144 7.0877 14.9574C6.8765 14.7783 6.56013 14.7758 6.36432 14.9716L5.88763 15.4483C5.6931 15.6428 5.69119 15.9594 5.89736 16.1416C6.5096 16.6825 7.2079 17.1193 7.96454 17.4334C8.87453 17.8111 9.85067 18.0037 10.8359 18C12.8251 18 14.7327 17.2098 16.1392 15.8033C17.5458 14.3968 18.3359 12.4891 18.3359 10.5C18.3359 8.51088 17.5458 6.60322 16.1392 5.1967C14.7327 3.79018 12.8251 3 10.8359 3Z" fill="#8C969B"/>
</g>
</svg>
