<svg width="20" height="20" viewBox="0 0 20 20" fill="none" xmlns="http://www.w3.org/2000/svg">
<g id="ph:x-bold">
<path id="Vector" d="M16.2907 14.961C16.4668 15.1371 16.5658 15.376 16.5658 15.6251C16.5658 15.8741 16.4668 16.113 16.2907 16.2891C16.1146 16.4652 15.8757 16.5642 15.6266 16.5642C15.3776 16.5642 15.1387 16.4652 14.9626 16.2891L10.0024 11.3274L5.04069 16.2876C4.86457 16.4637 4.6257 16.5626 4.37663 16.5626C4.12755 16.5626 3.88868 16.4637 3.71256 16.2876C3.53644 16.1114 3.4375 15.8726 3.4375 15.6235C3.4375 15.3744 3.53644 15.1356 3.71256 14.9594L8.67428 9.99928L3.71413 5.03756C3.53801 4.86144 3.43906 4.62257 3.43906 4.3735C3.43906 4.12443 3.53801 3.88556 3.71413 3.70944C3.89025 3.53332 4.12912 3.43437 4.37819 3.43437C4.62726 3.43437 4.86613 3.53332 5.04225 3.70944L10.0024 8.67116L14.9641 3.70866C15.1402 3.53254 15.3791 3.43359 15.6282 3.43359C15.8773 3.43359 16.1161 3.53254 16.2922 3.70866C16.4684 3.88478 16.5673 4.12365 16.5673 4.37272C16.5673 4.62179 16.4684 4.86066 16.2922 5.03678L11.3305 9.99928L16.2907 14.961Z" fill="#141617"/>
</g>
</svg>
