<svg width="32" height="31" viewBox="0 0 32 31" fill="none" xmlns="http://www.w3.org/2000/svg">
<g id="lets-icons:chat-alt-3-fill">
<path id="Vector" fill-rule="evenodd" clip-rule="evenodd" d="M26.38 14.2449C26.38 10.6244 26.38 8.81479 25.5113 7.5143C25.135 6.95117 24.6515 6.46766 24.0884 6.09137C22.7879 5.22266 20.9796 5.22266 17.3578 5.22266H14.78C11.1595 5.22266 9.34995 5.22266 8.04946 6.09137C7.48628 6.46761 7.00276 6.95113 6.62652 7.5143C5.75781 8.81479 5.75781 10.6231 5.75781 14.2449C5.75781 17.8654 5.75781 19.675 6.62652 20.9755C7.00276 21.5386 7.48628 22.0221 8.04946 22.3984C9.18497 23.1575 10.7097 23.2529 13.4911 23.2658L14.9167 26.1168C15.0238 26.3306 15.1883 26.5104 15.3918 26.636C15.5953 26.7617 15.8298 26.8282 16.0689 26.8282C16.3081 26.8282 16.5425 26.7617 16.746 26.636C16.9495 26.5104 17.114 26.3306 17.2212 26.1168L18.6467 23.2671C21.4281 23.2542 22.9516 23.1575 24.0884 22.3984C24.6515 22.0221 25.135 21.5386 25.5113 20.9755C26.38 19.675 26.38 17.8667 26.38 14.2449ZM10.9134 15.5338C11.2552 15.5338 11.583 15.398 11.8247 15.1563C12.0665 14.9145 12.2023 14.5867 12.2023 14.2449C12.2023 13.903 12.0665 13.5752 11.8247 13.3335C11.583 13.0918 11.2552 12.956 10.9134 12.956C10.5715 12.956 10.2437 13.0918 10.002 13.3335C9.76027 13.5752 9.62448 13.903 9.62448 14.2449C9.62448 14.5867 9.76027 14.9145 10.002 15.1563C10.2437 15.398 10.5715 15.5338 10.9134 15.5338ZM17.3578 14.2449C17.3578 14.5867 17.222 14.9145 16.9803 15.1563C16.7386 15.398 16.4108 15.5338 16.0689 15.5338C15.7271 15.5338 15.3993 15.398 15.1575 15.1563C14.9158 14.9145 14.78 14.5867 14.78 14.2449C14.78 13.903 14.9158 13.5752 15.1575 13.3335C15.3993 13.0918 15.7271 12.956 16.0689 12.956C16.4108 12.956 16.7386 13.0918 16.9803 13.3335C17.222 13.5752 17.3578 13.903 17.3578 14.2449ZM22.5134 14.2449C22.5134 14.5867 22.3776 14.9145 22.1359 15.1563C21.8941 15.398 21.5663 15.5338 21.2245 15.5338C20.8826 15.5338 20.5548 15.398 20.3131 15.1563C20.0714 14.9145 19.9356 14.5867 19.9356 14.2449C19.9356 13.903 20.0714 13.5752 20.3131 13.3335C20.5548 13.0918 20.8826 12.956 21.2245 12.956C21.5663 12.956 21.8941 13.0918 22.1359 13.3335C22.3776 13.5752 22.5134 13.903 22.5134 14.2449Z" fill="#C3C8CB"/>
</g>
</svg>
