<svg width="1634" height="1487" viewBox="0 0 1634 1487" fill="none" xmlns="http://www.w3.org/2000/svg" xmlns:xlink="http://www.w3.org/1999/xlink">
<g filter="url(#filter0_d_2130_22262)">
<path d="M80.7852 123.076C80.7852 95.1437 103.429 72.5 131.361 72.5H1502.56C1530.78 72.5 1553.65 95.3701 1553.65 123.582V1347.42C1553.65 1375.63 1530.78 1398.5 1502.56 1398.5H131.867C103.655 1398.5 80.7852 1375.63 80.7852 1347.42V123.076Z" fill="#EEF3F6"/>
<path d="M168.674 170.383V201.415H164.582V170.383H168.674ZM162.058 171.065V200.051H158V185.797H152.919C151.146 189.343 148.265 192.412 143.849 194.97L141.393 191.901C147.651 188.184 150.413 183.665 151.01 177.578H143.098V174.066H155.34C155.323 177.016 155.016 179.795 154.283 182.352H158V171.065H162.058ZM184.019 177.408C184.019 183.103 186.611 188.831 191.862 191.048L189.305 194.526C185.758 192.924 183.303 189.837 181.905 186.001C180.49 190.178 177.949 193.554 174.164 195.276L171.538 191.662C176.96 189.377 179.586 183.444 179.62 177.408V172.77H184.019V177.408ZM197.932 170.383V201.483H193.533V170.383H197.932ZM230.43 182.693V186.138H218.427V188.115H226.986V196.061H209.697V197.936H227.804V201.21H205.434V192.992H222.689V191.389H205.4V188.115H214.062V186.138H202.126V182.693H230.43ZM226.849 171.27V181.057H205.639V171.27H226.849ZM209.901 174.646V177.715H222.519V174.646H209.901ZM257.745 172.634V174.577C257.745 176.726 257.745 179.829 257.028 183.682L252.766 183.273C253.311 180.289 253.448 178.039 253.482 176.18H241.785V172.634H257.745ZM250.038 179.795V185.728C253.124 185.609 256.295 185.37 259.211 184.944L259.45 188.081C253.005 189.275 245.707 189.377 240.319 189.411L239.944 185.933C241.683 185.933 243.644 185.933 245.707 185.865V179.795H250.038ZM265.349 170.383V179.829H269.1V183.478H265.349V193.606H260.882V170.383H265.349ZM266.304 197.391V200.869H244.514V191.525H248.878V197.391H266.304ZM296.551 170.383V201.483H292.22V170.383H296.551ZM286.935 172.975V184.944H276.704V190.639C281.427 190.622 285.451 190.349 290.004 189.616L290.379 193.128C285.264 194.015 280.66 194.219 274.999 194.219H272.203V181.5H282.502V176.487H272.169V172.975H286.935Z" fill="#141617"/>
<g filter="url(#filter1_d_2130_22262)">
<rect x="1322.89" y="155.844" width="169.826" height="59.8612" rx="29.9306" fill="white" shape-rendering="crispEdges"/>
<g clip-path="url(#clip0_2130_22262)">
<path d="M1364.04 175.801H1344.08C1342.71 175.801 1341.6 176.923 1341.6 178.295L1341.59 193.26C1341.59 194.632 1342.71 195.755 1344.08 195.755H1364.04C1365.41 195.755 1366.53 194.632 1366.53 193.26V178.295C1366.53 176.923 1365.41 175.801 1364.04 175.801ZM1363.54 181.101L1354.72 186.613C1354.32 186.863 1353.8 186.863 1353.4 186.613L1344.58 181.101C1344.27 180.901 1344.08 180.565 1344.08 180.203C1344.08 179.368 1344.99 178.869 1345.71 179.305L1354.06 184.531L1362.42 179.305C1363.13 178.869 1364.04 179.368 1364.04 180.203C1364.04 180.565 1363.85 180.901 1363.54 181.101Z" fill="#93B7C3"/>
</g>
<path d="M1396.03 186.169V187.482H1389.96V190.449H1388.35V187.482H1382.05V186.169H1396.03ZM1394.22 179.162V184.584H1383.84V179.162H1394.22ZM1385.42 180.441V183.305H1392.62V180.441H1385.42ZM1394.48 192.086V193.399H1383.78V189H1385.4V192.086H1394.48ZM1402.13 179.537C1404.55 179.52 1406.27 181.02 1406.29 183.169C1406.27 185.317 1404.55 186.817 1402.13 186.817C1399.73 186.817 1397.95 185.317 1397.97 183.169C1397.95 181.02 1399.73 179.52 1402.13 179.537ZM1402.13 180.935C1400.65 180.935 1399.56 181.822 1399.57 183.169C1399.56 184.516 1400.65 185.402 1402.13 185.402C1403.61 185.402 1404.71 184.516 1404.71 183.169C1404.71 181.822 1403.61 180.935 1402.13 180.935ZM1409.79 178.446V193.757H1408.17V178.446H1409.79ZM1397.24 189.119C1400.02 189.119 1403.87 189.085 1407.21 188.608L1407.33 189.784C1403.87 190.449 1400.17 190.466 1397.44 190.466L1397.24 189.119ZM1428.41 178.446V184.362H1430.86V185.726H1428.41V193.723H1426.79V178.446H1428.41ZM1418.69 179.724V183.646H1422.73V179.724H1424.33V190.091H1417.08V179.724H1418.69ZM1418.69 188.761H1422.73V184.925H1418.69V188.761ZM1445.58 190.534V191.898H1431.59V190.534H1437.75V187.857H1433.3V182.998H1442.27V180.85H1433.26V179.52H1443.87V184.294H1434.9V186.527H1444.23V187.857H1439.35V190.534H1445.58ZM1458.58 178.446V184.533H1460.95V185.88H1458.58V193.706H1456.96V178.446H1458.58ZM1454.59 180.048C1454.58 184.464 1452.63 188.403 1447.6 190.892L1446.7 189.631C1450.53 187.721 1452.61 184.959 1452.94 181.395H1447.47V180.048H1454.59ZM1474.48 178.446V193.723H1472.84V178.446H1474.48ZM1469.92 180.082C1469.92 184.55 1468.01 188.437 1462.78 190.944L1461.93 189.631C1465.99 187.695 1467.97 184.942 1468.29 181.378H1462.66V180.082H1469.92Z" fill="#141617"/>
</g>
<path d="M155.813 246.26H1477.75C1485.67 246.26 1492.09 252.681 1492.09 260.602V307.992C1492.09 315.913 1485.67 322.334 1477.75 322.334H155.813C147.892 322.334 141.471 315.913 141.471 307.992V260.602C141.471 252.681 147.892 246.26 155.813 246.26Z" fill="white"/>
<path d="M155.813 246.26H1477.75C1485.67 246.26 1492.09 252.681 1492.09 260.602V307.992C1492.09 315.913 1485.67 322.334 1477.75 322.334H155.813C147.892 322.334 141.471 315.913 141.471 307.992V260.602C141.471 252.681 147.892 246.26 155.813 246.26Z" stroke="#D4E3E7" stroke-width="1.24711"/>
<path d="M187.613 293.648L183.1 289.135M183.1 289.135C183.872 288.363 184.484 287.446 184.902 286.437C185.32 285.429 185.535 284.348 185.535 283.256C185.535 282.164 185.32 281.083 184.902 280.074C184.484 279.065 183.872 278.149 183.1 277.377C182.328 276.605 181.411 275.992 180.402 275.574C179.394 275.156 178.312 274.941 177.221 274.941C176.129 274.941 175.048 275.156 174.039 275.574C173.03 275.992 172.113 276.605 171.341 277.377C169.782 278.936 168.906 281.051 168.906 283.256C168.906 285.461 169.782 287.576 171.341 289.135C172.901 290.694 175.015 291.57 177.221 291.57C179.426 291.57 181.54 290.694 183.1 289.135Z" stroke="#727D83" stroke-width="3.11777" stroke-linecap="round" stroke-linejoin="round"/>
<path d="M214.381 276.469V291.746H212.83V276.469H214.381ZM211.278 276.793V290.979H209.744V283.204H207.374V281.874H209.744V276.793H211.278ZM205.873 280.732C205.873 283.34 206.93 285.949 209.079 287.194L208.107 288.387C206.649 287.518 205.643 285.975 205.123 284.125C204.569 286.12 203.529 287.816 202.037 288.745L201.048 287.535C203.213 286.222 204.322 283.443 204.322 280.732V279.504H201.508V278.191H208.499V279.504H205.873V280.732ZM228.516 277.1V282.334H224.117V284.108H230.289V285.42H216.359V284.108H222.514V282.334H218.132V277.1H228.516ZM219.718 278.379V281.039H226.913V278.379H219.718ZM228.584 286.87V291.746H226.947V288.149H217.911V286.87H228.584ZM238.405 276.725C241.849 276.725 243.861 277.646 243.861 279.351C243.861 281.056 241.849 281.993 238.405 281.993C234.961 281.993 232.949 281.056 232.949 279.351C232.949 277.646 234.961 276.725 238.405 276.725ZM238.405 277.918C235.967 277.918 234.62 278.447 234.637 279.351C234.62 280.288 235.967 280.783 238.405 280.783C240.843 280.783 242.19 280.288 242.19 279.351C242.19 278.447 240.843 277.918 238.405 277.918ZM245.379 282.931V284.227H231.449V282.931H245.379ZM243.623 285.403V288.984H234.722V290.348H244.049V291.593H233.137V287.808H242.02V286.614H233.12V285.403H243.623ZM263.469 276.469V284.67H261.849V276.469H263.469ZM255.063 285.403V287.126H261.866V285.403H263.469V291.559H253.478V285.403H255.063ZM255.063 290.229H261.866V288.404H255.063V290.229ZM255.183 277.168C257.519 277.168 259.241 278.617 259.241 280.715C259.241 282.812 257.519 284.261 255.183 284.244C252.847 284.261 251.108 282.812 251.108 280.715C251.108 278.617 252.847 277.168 255.183 277.168ZM255.183 278.532C253.733 278.515 252.693 279.419 252.693 280.715C252.693 282.027 253.733 282.914 255.183 282.914C256.615 282.914 257.655 282.027 257.655 280.715C257.655 279.419 256.615 278.515 255.183 278.532ZM273.171 277.39V281.84H268.124V283.954C270.784 283.963 272.233 283.903 273.955 283.579L274.109 284.892C272.25 285.216 270.681 285.267 267.629 285.267H266.521V280.612H271.551V278.686H266.504V277.39H273.171ZM278.627 276.486V285.881H277.007V283.187H274.143V281.891H277.007V279.998H274.143V278.703H277.007V276.486H278.627ZM278.627 286.648V291.763H277.007V287.961H268.26V286.648H278.627ZM288.533 278.993V280.305H280.946V278.993H283.947V276.912H285.549V278.993H288.533ZM284.748 281.226C286.692 281.226 288.056 282.675 288.073 284.738C288.056 286.819 286.692 288.285 284.748 288.285C282.838 288.285 281.423 286.819 281.44 284.738C281.423 282.675 282.838 281.226 284.748 281.226ZM284.748 282.573C283.64 282.573 282.872 283.477 282.872 284.738C282.872 286.034 283.64 286.904 284.748 286.904C285.839 286.904 286.641 286.034 286.641 284.738C286.641 283.477 285.839 282.573 284.748 282.573ZM294.057 276.469V291.746H292.523V284.159H290.767V291.03H289.232V276.81H290.767V282.829H292.523V276.469H294.057ZM309.999 285.079V286.392H303.793V291.729H302.207V286.392H296.069V285.079H309.999ZM308.687 277.373V278.669H303.964C303.989 280.561 306.342 282.249 309.232 282.641L308.635 283.92C306.129 283.528 303.964 282.292 303.043 280.544C302.097 282.292 299.94 283.528 297.468 283.92L296.854 282.641C299.71 282.249 302.063 280.561 302.122 278.669H297.365V277.373H308.687ZM315.814 280.646C315.814 283.085 316.837 285.693 318.883 286.938L317.979 288.183C316.547 287.322 315.575 285.796 315.063 284.022C314.492 285.966 313.444 287.62 311.96 288.524L310.954 287.313C313.12 286.017 314.245 283.323 314.245 280.715V277.867H315.814V280.646ZM324.305 276.469V291.746H322.753V276.469H324.305ZM321.133 276.759V290.996H319.599V283.187H317.229V281.84H319.599V276.759H321.133ZM340.23 288.49V289.837H326.248V288.49H329.59V284.5C328.337 283.809 327.578 282.709 327.578 281.345C327.578 278.941 329.931 277.356 333.205 277.356C336.496 277.356 338.849 278.941 338.849 281.345C338.849 282.692 338.115 283.775 336.888 284.466V288.49H340.23ZM333.205 278.652C330.801 278.652 329.147 279.692 329.147 281.345C329.147 282.982 330.801 284.056 333.205 284.056C335.592 284.056 337.28 282.982 337.28 281.345C337.28 279.692 335.592 278.652 333.205 278.652ZM331.193 288.49H335.251V285.079C334.629 285.241 333.938 285.318 333.205 285.318C332.489 285.318 331.807 285.241 331.193 285.097V288.49ZM343.077 290.416C342.412 290.416 341.849 289.871 341.866 289.206C341.849 288.541 342.412 287.995 343.077 287.995C343.725 287.995 344.288 288.541 344.288 289.206C344.288 289.871 343.725 290.416 343.077 290.416Z" fill="#A8AFB3"/>
<rect x="141.471" y="348.526" width="1350.62" height="983.52" rx="16.836" fill="white"/>
<rect x="141.471" y="348.526" width="1350.62" height="983.52" rx="16.836" stroke="#D4E3E7" stroke-width="1.24711"/>
<mask id="path-10-inside-1_2130_22262" fill="white">
<path d="M185.742 377.832H261.816V427.716H185.742V377.832Z"/>
</mask>
<path d="M261.816 425.222H185.742V430.211H261.816V425.222Z" fill="#141617" mask="url(#path-10-inside-1_2130_22262)"/>
<path d="M221.491 394.494V405.679H219.871V399.933H216.955V398.62H219.871V394.494H221.491ZM221.9 408.117V409.43H211.567V404.673H213.187V408.117H221.9ZM214.227 397.58C214.227 399.49 215.608 401.399 217.91 402.167L217.075 403.462C215.361 402.857 214.091 401.629 213.426 400.121C212.761 401.8 211.422 403.155 209.607 403.803L208.771 402.491C211.124 401.689 212.573 399.677 212.573 397.58V396.983H209.266V395.653H217.501V396.983H214.227V397.58ZM228.413 399.166C228.413 401.57 229.521 404.025 231.636 405.15L230.732 406.344C229.257 405.56 228.226 404.093 227.68 402.354C227.126 404.221 226.103 405.824 224.628 406.702L223.673 405.474C225.787 404.247 226.879 401.638 226.896 399.166V398.552H224.133V397.222H226.896V395.023H228.413V397.222H231.124V398.552H228.413V399.166ZM236.955 394.477V409.754H235.404V394.477H236.955ZM233.852 394.801V408.987H232.318V401.774H230.118V400.427H232.318V394.801H233.852Z" fill="#141617"/>
<path d="M304.312 394.477V398.33H306.529V399.643H304.312V403.548H302.692V394.477H304.312ZM300.118 395.568C300.118 399.524 297.441 402.371 292.957 403.667L292.292 402.354C295.864 401.34 298.072 399.353 298.362 396.881H292.974V395.568H300.118ZM299.436 403.718C302.522 403.718 304.483 404.861 304.483 406.719C304.483 408.595 302.522 409.737 299.436 409.737C296.367 409.737 294.355 408.595 294.372 406.719C294.355 404.861 296.367 403.718 299.436 403.718ZM299.436 404.997C297.304 404.997 295.958 405.645 295.975 406.719C295.958 407.793 297.304 408.458 299.436 408.458C301.55 408.458 302.897 407.793 302.897 406.719C302.897 405.645 301.55 404.997 299.436 404.997ZM312.377 395.568C314.798 395.551 316.52 397.051 316.537 399.2C316.52 401.348 314.798 402.849 312.377 402.849C309.973 402.849 308.2 401.348 308.217 399.2C308.2 397.051 309.973 395.551 312.377 395.568ZM312.377 396.966C310.894 396.966 309.802 397.853 309.819 399.2C309.802 400.547 310.894 401.433 312.377 401.433C313.86 401.433 314.952 400.547 314.952 399.2C314.952 397.853 313.86 396.966 312.377 396.966ZM320.033 394.477V409.788H318.413V394.477H320.033ZM307.484 405.15C310.263 405.15 314.116 405.116 317.458 404.639L317.577 405.815C314.116 406.48 310.416 406.497 307.688 406.497L307.484 405.15ZM327.807 398.978C327.807 401.399 329.393 404.093 331.712 405.184L330.791 406.446C329.078 405.619 327.722 403.897 327.04 401.894C326.333 404.085 324.9 405.969 323.153 406.838L322.198 405.56C324.517 404.451 326.205 401.57 326.205 398.978V397.358H322.761V396.011H331.132V397.358H327.807V398.978ZM334.389 394.477V400.53H336.844V401.894H334.389V409.754H332.769V394.477H334.389ZM351.559 406.566V407.93H337.577V406.566H341.397V403.872H339.282V399.012H348.251V396.881H339.248V395.551H349.854V400.325H340.885V402.542H350.212V403.872H347.893V406.566H351.559ZM342.965 406.566H346.307V403.872H342.965V406.566Z" fill="#141617"/>
<path d="M413.623 395.824C413.606 397.853 416.095 399.762 419.096 400.155L418.465 401.485C415.968 401.084 413.768 399.788 412.788 397.989C411.782 399.797 409.591 401.084 407.11 401.485L406.462 400.155C409.463 399.762 411.918 397.87 411.935 395.824V394.988H413.623V395.824ZM419.727 402.985V404.315H413.521V409.754H411.935V404.315H405.797V402.985H419.727ZM433.572 395.21V396.506H428.917C429.011 398.168 431.211 399.635 434.049 399.984L433.436 401.263C430.818 400.922 428.67 399.703 427.843 397.989C427.016 399.694 424.876 400.922 422.268 401.263L421.654 399.984C424.51 399.635 426.684 398.168 426.769 396.506H422.165V395.21H433.572ZM434.851 402.252V403.565H428.781V406.531H427.178V403.565H420.87V402.252H434.851ZM433.299 408.117V409.43H422.609V405.065H424.228V408.117H433.299ZM448.696 394.477V402.422H447.093V400.598H443.751V401.86H436.709V395.176H438.329V397.239H442.148V395.176H443.751V396.574H447.093V394.477H448.696ZM448.696 403.104V406.855H440.358V408.271H449.241V409.566H438.738V405.645H447.093V404.366H438.704V403.104H448.696ZM438.329 400.564H442.148V398.484H438.329V400.564ZM443.751 399.353H447.093V397.819H443.751V399.353ZM467.332 394.477V398.33H469.548V399.643H467.332V403.548H465.712V394.477H467.332ZM463.137 395.568C463.137 399.524 460.46 402.371 455.976 403.667L455.311 402.354C458.883 401.34 461.091 399.353 461.381 396.881H455.993V395.568H463.137ZM462.455 403.718C465.541 403.718 467.502 404.861 467.502 406.719C467.502 408.595 465.541 409.737 462.455 409.737C459.386 409.737 457.374 408.595 457.391 406.719C457.374 404.861 459.386 403.718 462.455 403.718ZM462.455 404.997C460.324 404.997 458.977 405.645 458.994 406.719C458.977 407.793 460.324 408.458 462.455 408.458C464.569 408.458 465.916 407.793 465.916 406.719C465.916 405.645 464.569 404.997 462.455 404.997ZM475.396 395.568C477.818 395.551 479.54 397.051 479.557 399.2C479.54 401.348 477.818 402.849 475.396 402.849C472.992 402.849 471.219 401.348 471.236 399.2C471.219 397.051 472.992 395.551 475.396 395.568ZM475.396 396.966C473.913 396.966 472.822 397.853 472.839 399.2C472.822 400.547 473.913 401.433 475.396 401.433C476.88 401.433 477.971 400.547 477.971 399.2C477.971 397.853 476.88 396.966 475.396 396.966ZM483.052 394.477V409.788H481.432V394.477H483.052ZM470.503 405.15C473.282 405.15 477.136 405.116 480.477 404.639L480.597 405.815C477.136 406.48 473.436 406.497 470.708 406.497L470.503 405.15Z" fill="#141617"/>
<path d="M546.5 396.114V397.051C546.5 398.33 546.5 400.308 546.057 403.036L544.454 402.917C544.838 400.47 544.881 398.705 544.898 397.427H538.691V396.114H546.5ZM542.579 400.479V405.048C544.207 404.997 545.861 404.886 547.387 404.69L547.472 405.901C544.284 406.412 540.737 406.48 538.026 406.463L537.839 405.15C538.794 405.142 539.859 405.133 540.976 405.099V400.479H542.579ZM549.893 394.477V400.786H552.229V402.167H549.893V409.754H548.257V394.477H549.893ZM566.194 394.477V409.754H564.642V394.477H566.194ZM563.09 394.801V408.987H561.556V401.212H559.186V399.882H561.556V394.801H563.09ZM557.685 398.739C557.685 401.348 558.743 403.957 560.891 405.202L559.919 406.395C558.461 405.525 557.455 403.982 556.935 402.132C556.381 404.127 555.341 405.824 553.849 406.753L552.86 405.543C555.026 404.23 556.134 401.45 556.134 398.739V397.512H553.321V396.199H560.311V397.512H557.685V398.739ZM579.987 397V398.313H572.4V397H575.401V394.92H577.003V397H579.987ZM576.202 399.234C578.146 399.234 579.51 400.683 579.527 402.746C579.51 404.826 578.146 406.293 576.202 406.293C574.292 406.293 572.877 404.826 572.894 402.746C572.877 400.683 574.292 399.234 576.202 399.234ZM576.202 400.581C575.094 400.581 574.327 401.485 574.327 402.746C574.327 404.042 575.094 404.912 576.202 404.912C577.293 404.912 578.095 404.042 578.095 402.746C578.095 401.485 577.293 400.581 576.202 400.581ZM585.512 394.477V409.754H583.977V402.167H582.221V409.038H580.686V394.818H582.221V400.837H583.977V394.477H585.512ZM600.26 394.477V402.337H598.64V398.416H595.418V397.103H598.64V394.477H600.26ZM600.26 403.053V406.855H591.888V408.271H600.789V409.566H590.303V405.628H598.657V404.332H590.269V403.053H600.26ZM592.894 396.301C592.894 398.245 594.292 400.052 596.594 400.786L595.742 402.047C594.062 401.468 592.792 400.317 592.127 398.859C591.454 400.496 590.141 401.783 588.342 402.405L587.472 401.109C589.859 400.342 591.275 398.45 591.292 396.301V394.971H592.894V396.301Z" fill="#141617"/>
<path d="M669.149 402.508V403.786H655.185V402.508H669.149ZM667.376 405.116V409.754H665.722V406.412H656.77V405.116H667.376ZM667.546 399.967V401.212H657.009V394.869H667.444V396.148H658.646V397.392H667.052V398.62H658.646V399.967H667.546ZM682.312 394.477V398.33H684.528V399.643H682.312V403.548H680.692V394.477H682.312ZM678.117 395.568C678.117 399.524 675.441 402.371 670.956 403.667L670.291 402.354C673.863 401.34 676.071 399.353 676.361 396.881H670.973V395.568H678.117ZM677.435 403.718C680.522 403.718 682.482 404.861 682.482 406.719C682.482 408.595 680.522 409.737 677.435 409.737C674.366 409.737 672.354 408.595 672.372 406.719C672.354 404.861 674.366 403.718 677.435 403.718ZM677.435 404.997C675.304 404.997 673.957 405.645 673.974 406.719C673.957 407.793 675.304 408.458 677.435 408.458C679.55 408.458 680.897 407.793 680.897 406.719C680.897 405.645 679.55 404.997 677.435 404.997ZM690.649 395.381L686.677 410.163H685.057L689.03 395.381H690.649ZM704.102 394.477V402.337H702.499V394.477H704.102ZM704.119 403.07V406.89H695.696V408.305H704.631V409.601H694.128V405.662H702.516V404.349H694.077V403.07H704.119ZM697.009 396.063C696.992 398.109 698.476 399.967 700.811 400.7L700.01 401.962C698.228 401.382 696.89 400.172 696.208 398.62C695.509 400.291 694.145 401.621 692.32 402.252L691.502 400.973C693.889 400.172 695.355 398.177 695.355 396.063V394.886H697.009V396.063ZM712.15 398.364C712.133 401.161 713.821 403.957 716.191 405.014L715.219 406.293C713.463 405.457 712.073 403.744 711.366 401.655C710.649 403.889 709.243 405.739 707.41 406.634L706.421 405.27C708.825 404.196 710.513 401.28 710.513 398.364V395.756H712.15V398.364ZM719.192 394.477V409.788H717.572V394.477H719.192ZM733.633 394.477V398.995H735.85V400.342H733.633V405.577H731.996V394.477H733.633ZM729.49 395.636C729.49 399.643 726.762 402.559 722.295 403.906L721.613 402.61C725.185 401.536 727.41 399.507 727.734 396.983H722.261V395.636H729.49ZM734.264 408.117V409.43H723.932V404.434H725.568V408.117H734.264ZM745.637 398.654C745.637 401.092 746.66 403.701 748.706 404.946L747.802 406.19C746.37 405.329 745.398 403.803 744.886 402.03C744.315 403.974 743.267 405.628 741.783 406.531L740.777 405.321C742.943 404.025 744.068 401.331 744.068 398.722V395.875H745.637V398.654ZM754.128 394.477V409.754H752.576V394.477H754.128ZM750.956 394.767V409.004H749.422V401.195H747.052V399.848H749.422V394.767H750.956ZM761.459 397.239C761.459 399.439 762.84 401.536 765.108 402.422L764.222 403.684C762.551 403.011 761.323 401.672 760.675 400.001C760.019 401.791 758.714 403.207 756.941 403.923L756.071 402.627C758.424 401.757 759.84 399.575 759.857 397.239V395.346H761.459V397.239ZM768.808 394.494V405.866H767.188V401.058H764.222V399.745H767.188V397.972H764.222V396.659H767.188V394.494H768.808ZM769.149 408.117V409.43H758.834V404.724H760.47V408.117H769.149Z" fill="#141617"/>
<rect x="186.366" y="458.272" width="77.1314" height="35.7182" rx="17.8591" fill="white"/>
<rect x="186.366" y="458.272" width="77.1314" height="35.7182" rx="17.8591" stroke="#D4E3E7" stroke-width="1.24711"/>
<path d="M209.585 469.28V482.375H208.182V469.28H209.585ZM205.683 470.683C205.683 474.512 204.046 477.845 199.559 479.993L198.829 478.868C202.314 477.209 204.01 474.849 204.28 471.794H199.457V470.683H205.683ZM221.92 469.28V473.153H223.82V474.308H221.92V478.794H220.517V469.28H221.92ZM218.368 470.274C218.368 473.709 216.03 476.208 212.201 477.362L211.616 476.252C214.678 475.331 216.585 473.592 216.863 471.429H212.172V470.274H218.368ZM222.46 480.972V482.097H213.604V477.815H215.007V480.972H222.46Z" fill="#141617"/>
<g clip-path="url(#clip1_2130_22262)">
<path d="M238.307 473.017C238.002 473.322 238.002 473.815 238.307 474.12L243.489 479.302C243.732 479.545 244.125 479.545 244.368 479.302L249.55 474.12C249.856 473.815 249.856 473.322 249.55 473.017C249.244 472.711 248.752 472.711 248.446 473.017L243.926 477.531L239.405 473.01C239.105 472.711 238.607 472.711 238.307 473.017Z" fill="#141617"/>
</g>
<rect x="277.217" y="458.272" width="77.1314" height="35.7182" rx="17.8591" fill="white"/>
<rect x="277.217" y="458.272" width="77.1314" height="35.7182" rx="17.8591" stroke="#D4E3E7" stroke-width="1.24711"/>
<path d="M300.437 469.28V482.375H299.034V469.28H300.437ZM296.534 470.683C296.534 474.512 294.898 477.845 290.411 479.993L289.68 478.868C293.166 477.209 294.861 474.849 295.131 471.794H290.309V470.683H296.534ZM309.191 470.435C309.176 472.174 311.31 473.811 313.882 474.147L313.341 475.287C311.2 474.944 309.315 473.833 308.475 472.291C307.612 473.84 305.734 474.944 303.608 475.287L303.053 474.147C305.625 473.811 307.729 472.189 307.744 470.435V469.719H309.191V470.435ZM314.423 476.573V477.713H309.103V482.375H307.744V477.713H302.483V476.573H314.423Z" fill="#141617"/>
<g clip-path="url(#clip2_2130_22262)">
<path d="M329.159 473.017C328.853 473.322 328.853 473.815 329.159 474.12L334.341 479.302C334.584 479.545 334.977 479.545 335.22 479.302L340.402 474.12C340.707 473.815 340.707 473.322 340.402 473.017C340.096 472.711 339.603 472.711 339.298 473.017L334.777 477.531L330.256 473.01C329.957 472.711 329.458 472.711 329.159 473.017Z" fill="#141617"/>
</g>
<rect x="368.065" y="458.272" width="77.1314" height="35.7182" rx="17.8591" fill="white"/>
<rect x="368.065" y="458.272" width="77.1314" height="35.7182" rx="17.8591" stroke="#D4E3E7" stroke-width="1.24711"/>
<path d="M392.366 477.128V478.283H389.355V482.375H387.952V478.283H384.795V482.375H383.407V478.283H380.382V477.128H392.366ZM391.036 474.805V475.915H381.96V469.865H390.89V470.976H383.319V472.291H390.597V473.387H383.319V474.805H391.036ZM404.247 469.28V482.404H402.874V475.258H400.272V474.118H402.874V469.28H404.247ZM400.053 470.45V471.575H395.332V474.118H399.498V475.229H395.332V478.151C397.525 478.144 399.045 478.093 400.784 477.786L400.93 478.911C399.03 479.218 397.378 479.291 394.952 479.306H393.929V470.45H400.053Z" fill="#141617"/>
<g clip-path="url(#clip3_2130_22262)">
<path d="M420.006 473.017C419.701 473.322 419.701 473.815 420.006 474.12L425.188 479.302C425.431 479.545 425.824 479.545 426.067 479.302L431.249 474.12C431.555 473.815 431.555 473.322 431.249 473.017C430.944 472.711 430.451 472.711 430.145 473.017L425.625 477.531L421.104 473.01C420.805 472.711 420.306 472.711 420.006 473.017Z" fill="#141617"/>
</g>
<rect x="458.913" y="458.272" width="103.131" height="35.7182" rx="17.8591" fill="white"/>
<rect x="458.913" y="458.272" width="103.131" height="35.7182" rx="17.8591" stroke="#D4E3E7" stroke-width="1.24711"/>
<path d="M477.148 477.508C479.983 477.508 481.766 478.4 481.781 479.934C481.766 481.454 479.983 482.36 477.148 482.346C474.342 482.36 472.545 481.454 472.545 479.934C472.545 478.4 474.342 477.508 477.148 477.508ZM477.148 478.561C475.161 478.561 473.918 479.072 473.933 479.934C473.918 480.782 475.161 481.279 477.148 481.279C479.15 481.279 480.393 480.782 480.407 479.934C480.393 479.072 479.15 478.561 477.148 478.561ZM481.679 469.923V471.02C481.679 472.072 481.679 473.153 481.313 474.498L479.954 474.352C480.305 473.014 480.305 472.05 480.305 471.034H472.647V469.923H481.679ZM483.169 475.302V476.427H471.259V475.302H476.038V472.846H477.397V475.302H483.169ZM495.387 469.28V482.375H494.057V475.579H492.435V481.747H491.134V469.631H492.435V474.454H494.057V469.28H495.387ZM489.834 470.946C489.819 474.396 488.679 477.479 484.938 479.598L484.134 478.634C487.042 476.99 488.27 474.761 488.489 472.086H484.689V470.946H489.834ZM500.663 470.26C501.854 470.26 502.841 470.946 503.425 472.13H506.655V469.28H508.029V482.404H506.655V477.377H503.513C502.95 478.692 501.92 479.452 500.663 479.452C498.705 479.452 497.331 477.669 497.346 474.849C497.331 472.043 498.705 470.26 500.663 470.26ZM500.663 471.502C499.479 471.502 498.661 472.788 498.661 474.849C498.661 476.924 499.479 478.21 500.663 478.21C501.847 478.21 502.665 476.924 502.665 474.849C502.665 472.788 501.847 471.502 500.663 471.502ZM503.82 473.27C503.915 473.752 503.981 474.279 503.981 474.849C503.981 475.345 503.937 475.806 503.849 476.237H506.655V473.27H503.82ZM522.015 476.982V478.078H516.666V482.375H515.307V478.078H510.031V476.982H522.015ZM512.895 469.807V471.516H519.121V469.807H520.51V475.492H511.522V469.807H512.895ZM512.895 474.381H519.121V472.627H512.895V474.381Z" fill="#141617"/>
<g clip-path="url(#clip4_2130_22262)">
<path d="M536.854 473.017C536.549 473.322 536.549 473.815 536.854 474.12L542.036 479.302C542.279 479.545 542.672 479.545 542.915 479.302L548.097 474.12C548.402 473.815 548.402 473.322 548.097 473.017C547.791 472.711 547.299 472.711 546.993 473.017L542.472 477.531L537.952 473.01C537.652 472.711 537.153 472.711 536.854 473.017Z" fill="#141617"/>
</g>
<mask id="path-33-inside-2_2130_22262" fill="white">
<path d="M185.742 524.543H1447.82V594.381H185.742V524.543Z"/>
</mask>
<path d="M1447.82 593.134H185.742V595.628H1447.82V593.134Z" fill="#D4E3E7" mask="url(#path-33-inside-2_2130_22262)"/>
<path d="M219.233 551.633V560.499H217.613V556.134H215.431V554.822H217.613V551.633H219.233ZM219.233 561.215V566.689H208.85V561.215H219.233ZM210.435 562.494V565.41H217.631V562.494H210.435ZM209.958 553.816C209.958 555.043 210.214 556.791 211.305 558.01C212.371 556.816 212.618 555.094 212.618 553.816V552.503H214.135V553.816C214.135 555.555 214.732 557.584 216.522 558.59L215.602 559.749C214.476 559.101 213.786 558.036 213.402 556.816C213.044 558.061 212.405 559.221 211.288 559.903C210.154 559.195 209.515 558.001 209.174 556.731C208.773 557.967 208.091 559.084 206.974 559.749L206.087 558.59C207.844 557.533 208.423 555.401 208.423 553.816V552.503H209.958V553.816ZM223.666 553.219V561.71C225.235 561.684 226.718 561.582 228.406 561.232L228.628 562.614C226.633 563.023 224.945 563.108 223.053 563.108H222.047V553.219H223.666ZM234.476 551.633V566.91H232.942V551.633H234.476ZM231.203 551.974V566.16H229.668V557.993H226.326V556.663H229.668V551.974H231.203ZM240.768 552.145C243.07 552.162 244.758 553.577 244.775 555.572C244.758 557.584 243.07 558.982 240.768 558.982C238.449 558.982 236.744 557.584 236.744 555.572C236.744 553.577 238.449 552.162 240.768 552.145ZM240.768 553.509C239.353 553.492 238.313 554.327 238.33 555.572C238.313 556.833 239.353 557.669 240.768 557.669C242.166 557.669 243.206 556.833 243.206 555.572C243.206 554.327 242.166 553.492 240.768 553.509ZM249.105 551.633V559.408H247.486V551.633H249.105ZM249.105 560.107V563.961H240.683V565.427H249.617V566.723H239.114V562.75H247.503V561.403H239.063V560.107H249.105Z" fill="#8C969B"/>
<path d="M321.002 551.633V566.91H319.451V551.633H321.002ZM317.899 551.957V566.143H316.365V558.368H313.995V557.038H316.365V551.957H317.899ZM312.494 555.896C312.494 558.504 313.551 561.113 315.7 562.358L314.728 563.551C313.27 562.682 312.264 561.139 311.744 559.289C311.19 561.284 310.15 562.98 308.658 563.909L307.669 562.699C309.835 561.386 310.943 558.607 310.943 555.896V554.668H308.129V553.355H315.12V554.668H312.494V555.896ZM335.137 552.264V557.498H330.738V559.272H336.91V560.585H322.98V559.272H329.135V557.498H324.754V552.264H335.137ZM326.339 553.543V556.203H333.534V553.543H326.339ZM335.205 562.034V566.91H333.569V563.313H324.532V562.034H335.205Z" fill="#8C969B"/>
<path d="M557.778 553.185C557.761 557.686 556.38 561.693 550.804 564.438L549.917 563.227C552.68 561.872 554.325 560.226 555.237 558.283L550.241 558.76L550.003 557.362L555.732 556.97C555.962 556.194 556.098 555.367 556.158 554.498H550.804V553.185H557.778ZM561.733 551.633V557.737H564.103V559.067H561.733V566.893H560.114V551.633H561.733ZM571.179 553.44V554.736H567.019V557.55H570.497V558.811H567.019V562.017C569.014 562 570.318 561.906 571.895 561.625L572.032 562.937C570.276 563.296 568.826 563.33 566.456 563.33H565.467V553.44H571.179ZM578.05 551.633V566.91H576.482V551.633H578.05ZM574.896 551.957V566.143H573.362V558.675H571.299V557.362H573.362V551.957H574.896ZM592.373 553.099V554.6C592.373 556.492 592.373 558.607 591.793 561.727L590.156 561.556C590.753 558.607 590.753 556.441 590.753 554.6V554.412H581.478V553.099H592.373ZM593.941 563.5V564.847H580.011V563.5H585.314V558.112H586.917V563.5H593.941ZM607.786 551.633V566.944H606.166V551.633H607.786ZM603.114 553.014V558.59H597.624V561.932C600.096 561.923 602.262 561.812 604.819 561.386L604.973 562.716C602.262 563.176 599.96 563.278 597.266 563.278H595.97V557.294H601.461V554.327H595.953V553.014H603.114Z" fill="#8C969B"/>
<path d="M748.367 560.789V562.136H744.854V566.91H743.218V562.136H739.535V566.91H737.915V562.136H734.385V560.789H748.367ZM746.815 558.078V559.374H736.227V552.315H746.645V553.611H737.813V555.146H746.304V556.424H737.813V558.078H746.815ZM762.229 551.633V566.944H760.626V558.607H757.591V557.277H760.626V551.633H762.229ZM757.335 552.997V554.31H751.828V557.277H756.687V558.573H751.828V561.983C754.385 561.974 756.159 561.914 758.188 561.556L758.358 562.869C756.142 563.227 754.215 563.313 751.385 563.33H750.191V552.997H757.335Z" fill="#8C969B"/>
<path d="M856.851 551.633V566.91H855.214V551.633H856.851ZM852.299 553.27C852.299 557.737 850.389 561.625 845.155 564.131L844.302 562.818C848.369 560.883 850.346 558.129 850.662 554.566H845.035V553.27H852.299ZM867.064 552.98C867.047 555.009 869.536 556.919 872.537 557.311L871.906 558.641C869.409 558.24 867.209 556.944 866.229 555.146C865.223 556.953 863.032 558.24 860.551 558.641L859.903 557.311C862.904 556.919 865.359 555.026 865.376 552.98V552.145H867.064V552.98ZM873.168 560.141V561.471H866.962V566.91H865.376V561.471H859.238V560.141H873.168Z" fill="#8C969B"/>
<path d="M960.783 561.232C964.091 561.232 966.171 562.273 966.188 564.063C966.171 565.836 964.091 566.893 960.783 566.876C957.509 566.893 955.412 565.836 955.412 564.063C955.412 562.273 957.509 561.232 960.783 561.232ZM960.783 562.46C958.464 562.46 957.015 563.057 957.032 564.063C957.015 565.052 958.464 565.631 960.783 565.631C963.119 565.631 964.568 565.052 964.585 564.063C964.568 563.057 963.119 562.46 960.783 562.46ZM966.069 552.383V553.662C966.069 554.89 966.069 556.151 965.642 557.72L964.057 557.55C964.466 555.989 964.466 554.864 964.466 553.679H955.532V552.383H966.069ZM967.808 558.658V559.971H953.912V558.658H959.487V555.793H961.073V558.658H967.808ZM982.062 551.633V566.91H980.51V558.982H978.618V566.177H977.1V552.042H978.618V557.669H980.51V551.633H982.062ZM975.583 553.577C975.566 557.601 974.236 561.198 969.871 563.671L968.933 562.545C972.326 560.627 973.758 558.027 974.014 554.907H969.581V553.577H975.583ZM988.217 552.776C989.607 552.776 990.757 553.577 991.439 554.958H995.208V551.633H996.81V566.944H995.208V561.079H991.542C990.885 562.614 989.683 563.5 988.217 563.5C985.932 563.5 984.329 561.42 984.347 558.129C984.329 554.856 985.932 552.776 988.217 552.776ZM988.217 554.225C986.836 554.225 985.881 555.725 985.881 558.129C985.881 560.55 986.836 562.051 988.217 562.051C989.598 562.051 990.553 560.55 990.553 558.129C990.553 555.725 989.598 554.225 988.217 554.225ZM991.9 556.288C992.011 556.851 992.087 557.464 992.087 558.129C992.087 558.709 992.036 559.246 991.934 559.749H995.208V556.288H991.9ZM1013.13 560.619V561.897H1006.89V566.91H1005.3V561.897H999.146V560.619H1013.13ZM1002.49 552.247V554.242H1009.75V552.247H1011.37V558.88H1000.89V552.247H1002.49ZM1002.49 557.584H1009.75V555.538H1002.49V557.584Z" fill="#8C969B"/>
<path d="M1063.17 551.633V554.702H1065.39V556.066H1063.17V559.289H1061.55V551.633H1063.17ZM1053.49 552.315V557.294C1055.54 557.277 1057.71 557.115 1060.05 556.646L1060.26 557.993C1057.68 558.504 1055.36 558.658 1053.11 558.658H1051.87V552.315H1053.49ZM1063.17 559.988V563.875H1054.94V565.41H1063.7V566.723H1053.33V562.631H1061.55V561.267H1053.3V559.988H1063.17ZM1078.57 551.633V557.601H1080.58V558.965H1078.57V566.91H1076.95V551.633H1078.57ZM1069.87 555.964C1069.87 557.677 1070.08 560.022 1071.27 561.676C1072.4 560.056 1072.63 557.737 1072.65 555.964V554.429H1071.56V553.117H1075.82V554.429H1074.19V555.964C1074.19 558.317 1074.63 561.113 1076.54 562.511L1075.5 563.688C1074.41 562.844 1073.77 561.505 1073.4 559.988C1073.05 561.539 1072.4 562.955 1071.25 563.824C1070.12 562.963 1069.47 561.539 1069.12 560.005C1068.74 561.505 1068.1 562.852 1067.02 563.688L1065.98 562.511C1067.88 561.096 1068.34 558.249 1068.34 555.964V554.429H1066.51V553.117H1070.95V554.429H1069.87V555.964Z" fill="#8C969B"/>
<path d="M1217.5 553.338V554.634H1212.93V557.362H1217.24V558.641H1212.93V561.863C1214.99 561.855 1216.36 561.77 1217.98 561.505L1218.11 562.835C1216.32 563.159 1214.84 563.227 1212.4 563.227H1211.38V553.338H1217.5ZM1223.94 551.633V566.91H1222.39V559.016H1220.55V566.16H1219V551.923H1220.55V557.703H1222.39V551.633H1223.94ZM1237.99 553.185V554.822C1237.99 556.799 1237.99 558.948 1237.43 562.204L1235.78 562.051C1236.39 558.999 1236.39 556.748 1236.39 554.822V554.515H1227.39V553.185H1237.99ZM1239.82 563.398V564.745H1225.89V563.398H1239.82Z" fill="#8C969B"/>
<mask id="path-44-inside-3_2130_22262" fill="white">
<path d="M185.742 594.383H1447.82V674.198H185.742V594.383Z"/>
</mask>
<path d="M1447.82 672.951H185.742V675.445H1447.82V672.951Z" fill="#D4E3E7" mask="url(#path-44-inside-3_2130_22262)"/>
<g clip-path="url(#clip5_2130_22262)">
<path d="M220.868 626.185H235.417C235.872 626.185 236.249 626.562 236.249 627.016V641.566C236.249 642.02 235.872 642.397 235.417 642.397H220.868C220.413 642.397 220.036 642.02 220.036 641.566V627.016C220.036 626.562 220.413 626.185 220.868 626.185Z" stroke="#C3C8CB" stroke-width="2.49422"/>
</g>
<rect width="79.8149" height="47.3901" transform="translate(275.535 610.594)" fill="url(#pattern0_2130_22262)"/>
<rect x="275.535" y="610.594" width="79.8149" height="47.3901" rx="4.98843" fill="#AFAFAF"/>
<rect x="275.535" y="610.594" width="79.8149" height="47.3901" rx="4.98843" fill="url(#pattern1_2130_22262)"/>
<path d="M376.665 640.289V627.945H384.099V629.309H378.199V633.435H383.536V634.782H378.199V640.289H376.665ZM386.196 640.289V631.031H387.662V640.289H386.196ZM386.929 629.496C386.366 629.496 385.906 629.07 385.906 628.524C385.906 627.979 386.366 627.552 386.929 627.552C387.492 627.552 387.969 627.979 387.969 628.524C387.969 629.07 387.492 629.496 386.929 629.496ZM393.749 643.955C391.516 643.955 389.998 642.983 389.828 641.261H391.362C391.567 642.199 392.436 642.676 393.749 642.676C395.335 642.676 396.307 641.994 396.307 640.46V638.584H396.187C395.88 639.096 395.284 640.153 393.493 640.153C391.243 640.153 389.555 638.448 389.555 635.532C389.555 632.685 391.192 630.911 393.511 630.911C395.301 630.911 395.88 632.003 396.222 632.497H396.341V631.031H397.773V640.545C397.773 642.932 396 643.955 393.749 643.955ZM393.698 638.84C395.386 638.84 396.341 637.629 396.341 635.583C396.341 633.605 395.42 632.224 393.698 632.224C391.925 632.224 391.038 633.725 391.038 635.583C391.038 637.51 391.942 638.84 393.698 638.84ZM400.109 640.289V631.031H401.524V632.48H401.644C402.036 631.491 402.922 630.911 404.133 630.911C405.343 630.911 406.162 631.491 406.605 632.48H406.707C407.185 631.525 408.157 630.911 409.487 630.911C411.141 630.911 412.317 631.917 412.317 634.1V640.289H410.851V634.117C410.851 632.753 409.981 632.224 408.975 632.224C407.679 632.224 406.946 633.094 406.946 634.27V640.289H405.463V633.963C405.463 632.923 404.713 632.224 403.655 632.224C402.547 632.224 401.575 633.162 401.575 634.509V640.289H400.109ZM414.227 637.663C414.227 635.532 416.102 635.055 417.705 634.935C418.293 634.893 419.794 634.816 420.211 634.799V634.049C420.211 632.872 419.512 632.19 418.114 632.19C416.938 632.19 416.239 632.736 416.034 633.435H414.499C414.687 631.951 416.136 630.911 418.182 630.911C419.393 630.911 421.661 631.269 421.661 634.185V640.289H420.211V639.027H420.143C419.836 639.658 418.984 640.511 417.381 640.511C415.625 640.511 414.227 639.471 414.227 637.663ZM415.693 637.732C415.693 638.703 416.511 639.198 417.637 639.198C419.291 639.198 420.211 638.09 420.211 636.93V635.992L417.875 636.163C416.545 636.248 415.693 636.726 415.693 637.732ZM439.666 626.512V630.4H441.933V631.542H439.666V635.464H438.319V626.512H439.666ZM439.666 636.146V639.198H431.158V640.545H440.245V641.5H429.828V638.294H438.336V637.101H429.794V636.146H439.666ZM427.765 634.1C428.975 634.1 430.39 634.1 431.874 634.049V633.111C430.1 632.983 428.975 632.275 428.975 631.116C428.975 629.871 430.373 629.155 432.522 629.155C434.687 629.155 436.068 629.871 436.085 631.116C436.068 632.267 434.977 632.974 433.204 633.111V634.015C434.619 633.946 436.051 633.836 437.381 633.639L437.5 634.543C434.227 635.072 430.578 635.106 427.918 635.106L427.765 634.1ZM436.921 627.672V628.644H428.14V627.672H431.874V626.376H433.204V627.672H436.921ZM432.522 630.042C431.123 630.059 430.254 630.451 430.254 631.116C430.254 631.798 431.123 632.241 432.522 632.241C433.92 632.241 434.806 631.798 434.806 631.116C434.806 630.451 433.92 630.059 432.522 630.042ZM456.733 634.015V635.123H442.922V634.015H446.349V631.883C445.139 631.414 444.457 630.639 444.457 629.616C444.457 627.825 446.503 626.802 449.828 626.802C453.118 626.802 455.181 627.825 455.181 629.616C455.181 630.63 454.508 631.406 453.306 631.866V634.015H456.733ZM449.828 636.282C453.084 636.282 455.028 637.22 455.045 638.959C455.028 640.681 453.084 641.636 449.828 641.636C446.537 641.636 444.593 640.681 444.593 638.959C444.593 637.22 446.537 636.282 449.828 636.282ZM449.828 637.305C447.389 637.322 445.94 637.919 445.957 638.959C445.94 639.982 447.389 640.596 449.828 640.596C452.232 640.596 453.698 639.982 453.698 638.959C453.698 637.919 452.232 637.322 449.828 637.305ZM449.828 627.859C447.355 627.859 445.821 628.524 445.838 629.616C445.821 630.724 447.355 631.372 449.828 631.372C452.283 631.372 453.817 630.724 453.817 629.616C453.817 628.524 452.283 627.859 449.828 627.859ZM447.679 634.015H451.976V632.241C451.337 632.352 450.62 632.412 449.828 632.412C449.035 632.412 448.319 632.352 447.679 632.241V634.015ZM460.109 627.297V629.65H464.337V627.297H465.65V630.246H469.231V626.512H470.578V634.799H469.231V631.372H465.65V634.236H458.779V627.297H460.109ZM460.109 633.145H464.337V630.707H460.109V633.145ZM462.155 635.532V637.391H469.231V635.532H470.561V641.466H460.808V635.532H462.155ZM462.155 640.357H469.231V638.465H462.155V640.357ZM491.362 638.618V639.726H477.483V638.618H483.724V635.344H479.12V627.587H480.467V630.332H488.344V627.587H489.657V635.344H485.037V638.618H491.362ZM480.467 634.253H488.344V631.423H480.467V634.253ZM506.384 634.015V635.089H500.126V636.623C503.016 636.743 504.678 637.621 504.696 639.13C504.678 640.766 502.769 641.636 499.478 641.636C496.187 641.636 494.244 640.766 494.244 639.13C494.244 637.621 495.923 636.751 498.813 636.623V635.089H492.573V634.015H506.384ZM500.126 626.478V627.996H504.985V629.087H500.228C500.356 630.766 502.743 631.892 505.565 632.156L505.156 633.196C502.641 632.932 500.399 632.037 499.478 630.502C498.549 632.037 496.298 632.932 493.8 633.196L493.374 632.156C496.196 631.892 498.583 630.766 498.745 629.087H494.005V627.996H498.813V626.478H500.126ZM499.478 637.629C497.023 637.629 495.591 638.175 495.608 639.13C495.591 640.084 497.023 640.613 499.478 640.596C501.899 640.613 503.349 640.084 503.349 639.13C503.349 638.175 501.899 637.629 499.478 637.629Z" fill="#42494C"/>
<path d="M681.553 634.543V635.617H667.726V634.543H681.553ZM679.763 637.101V641.67H678.399V638.175H669.277V637.101H679.763ZM679.917 632.037V633.077H669.567V626.922H679.831V627.996H670.914V629.445H679.422V630.485H670.914V632.037H679.917ZM694.682 626.512V630.468H696.967V631.576H694.682V635.617H693.352V626.512H694.682ZM690.556 627.638C690.556 631.491 687.828 634.339 683.412 635.634L682.849 634.543C686.507 633.486 688.842 631.38 689.124 628.746H683.514V627.638H690.556ZM689.891 635.788C692.943 635.788 694.853 636.896 694.853 638.703C694.853 640.545 692.943 641.636 689.891 641.636C686.873 641.636 684.912 640.545 684.929 638.703C684.912 636.896 686.873 635.788 689.891 635.788ZM689.891 636.862C687.675 636.845 686.242 637.561 686.259 638.703C686.242 639.846 687.675 640.562 689.891 640.562C692.125 640.562 693.557 639.846 693.557 638.703C693.557 637.561 692.125 636.845 689.891 636.862ZM702.883 627.365L698.894 642.148H697.564L701.536 627.365H702.883ZM716.251 626.512V634.373H714.938V626.512H716.251ZM716.268 635.14V638.772H707.76V640.408H716.813V641.5H706.447V637.732H714.938V636.214H706.413V635.14H716.268ZM709.124 628.115C709.107 630.263 710.744 632.156 712.994 632.889L712.329 633.929C710.556 633.324 709.141 632.054 708.459 630.417C707.777 632.182 706.353 633.571 704.554 634.219L703.855 633.162C706.14 632.361 707.76 630.349 707.76 628.115V626.956H709.124V628.115ZM724.23 630.587C724.213 633.35 726.106 636.146 728.339 637.152L727.521 638.209C725.799 637.365 724.307 635.583 723.582 633.418C722.875 635.711 721.383 637.621 719.61 638.516L718.757 637.391C721.008 636.35 722.883 633.469 722.9 630.587V627.825H724.23V630.587ZM731.34 626.512V641.704H729.993V626.512H731.34ZM745.782 626.512V631.133H748.067V632.258H745.782V637.612H744.435V626.512H745.782ZM741.69 627.689C741.69 631.593 738.894 634.492 734.529 635.856L733.949 634.782C737.581 633.648 739.951 631.483 740.241 628.814H734.58V627.689H741.69ZM746.481 640.221V641.346H736.285V636.487H737.615V640.221H746.481ZM757.905 630.826C757.905 633.23 759.081 635.839 761.093 637.032L760.326 638.073C758.868 637.186 757.819 635.566 757.291 633.725C756.728 635.737 755.603 637.467 754.085 638.396L753.233 637.391C755.33 636.163 756.609 633.469 756.609 630.877V627.945H757.905V630.826ZM766.396 626.512V641.67H765.1V626.512H766.396ZM763.259 626.836V640.903H761.997V633.094H759.422V631.951H761.997V626.836H763.259ZM773.676 629.326C773.676 631.542 775.194 633.639 777.393 634.509L776.643 635.549C774.972 634.859 773.676 633.477 773.045 631.747C772.389 633.614 771.025 635.097 769.26 635.822L768.527 634.748C770.778 633.878 772.346 631.696 772.363 629.326V627.382H773.676V629.326ZM781.059 626.529V637.851H779.712V632.992H776.592V631.9H779.712V629.888H776.592V628.78H779.712V626.529H781.059ZM781.4 640.221V641.346H771.255V636.674H772.602V640.221H781.4Z" fill="#42494C"/>
<path d="M875.274 627.501C875.274 631.338 872.461 634.049 867.994 635.242L867.448 634.185C871.199 633.196 873.561 631.193 873.859 628.593H868.25V627.501H875.274ZM879.793 626.529V635.089H878.463V626.529H879.793ZM879.793 635.822V641.466H869.938V635.822H879.793ZM871.251 636.896V640.374H878.48V636.896H871.251ZM888.983 628.269V629.36H884.26V632.275H888.761V633.35H884.26V636.777C886.511 636.768 887.9 636.708 889.563 636.402L889.682 637.51C887.909 637.851 886.442 637.919 883.953 637.919H882.981V628.269H888.983ZM895.36 626.512V641.67H894.064V633.725H891.984V640.903H890.688V626.836H891.984V632.616H894.064V626.512H895.36ZM909.972 626.512V634.27H908.642V626.512H909.972ZM905.436 627.263C905.436 631.133 902.691 633.554 898.207 634.594L897.713 633.469C901.506 632.625 903.731 630.809 903.97 628.371H898.48V627.263H905.436ZM909.972 634.986V638.652H901.481V640.46H910.517V641.534H900.151V637.629H908.642V636.061H900.117V634.986H909.972Z" fill="#42494C"/>
<path d="M1028.08 627.945V640.289H1026.52V629.547H1026.46L1023.45 631.542V629.991L1026.52 627.945H1028.08ZM1043.35 626.512V641.67H1042.01V626.512H1043.35ZM1038.87 628.166C1038.85 632.531 1036.82 636.385 1031.74 638.823L1031.01 637.732C1035.11 635.788 1037.2 632.881 1037.5 629.258H1031.71V628.166H1038.87Z" fill="#42494C"/>
<path d="M1164.72 617.456H1208.37C1217.67 617.456 1225.21 624.993 1225.21 634.292C1225.21 643.59 1217.67 651.127 1208.37 651.127H1164.72C1155.42 651.127 1147.89 643.59 1147.89 634.292C1147.89 624.993 1155.42 617.456 1164.72 617.456Z" fill="white"/>
<path d="M1164.72 617.456H1208.37C1217.67 617.456 1225.21 624.993 1225.21 634.292C1225.21 643.59 1217.67 651.127 1208.37 651.127H1164.72C1155.42 651.127 1147.89 643.59 1147.89 634.292C1147.89 624.993 1155.42 617.456 1164.72 617.456Z" stroke="#D4E3E7" stroke-width="1.24711"/>
<path d="M1166.12 635.639C1168.99 635.654 1170.8 636.56 1170.81 638.124C1170.8 639.658 1168.99 640.579 1166.12 640.579C1163.27 640.579 1161.44 639.658 1161.44 638.124C1161.44 636.56 1163.27 635.654 1166.12 635.639ZM1166.12 636.867C1164.22 636.867 1163.07 637.32 1163.08 638.124C1163.07 638.898 1164.22 639.322 1166.12 639.322C1168.04 639.322 1169.19 638.898 1169.2 638.124C1169.19 637.32 1168.04 636.867 1166.12 636.867ZM1170.72 628.011V629.107C1170.72 630.144 1170.72 631.255 1170.36 632.614L1168.75 632.468C1169.08 631.182 1169.1 630.254 1169.1 629.297H1161.58V628.011H1170.72ZM1172.19 633.374V634.689H1160.2V633.374H1164.85V630.977H1166.46V633.374H1172.19ZM1184.45 627.382V640.594H1182.88V633.813H1181.47V639.98H1179.95V627.733H1181.47V632.497H1182.88V627.382H1184.45ZM1178.82 629.048C1178.82 632.614 1177.7 635.683 1173.94 637.832L1173 636.706C1175.82 635.077 1177.01 632.987 1177.24 630.349H1173.62V629.048H1178.82Z" fill="#141617"/>
<g clip-path="url(#clip6_2130_22262)">
<path d="M1200.02 631.173C1199.71 631.478 1199.71 631.971 1200.02 632.277L1205.2 637.458C1205.44 637.701 1205.84 637.701 1206.08 637.458L1211.26 632.277C1211.57 631.971 1211.57 631.478 1211.26 631.173C1210.96 630.867 1210.46 630.867 1210.16 631.173L1205.64 635.687L1201.12 631.167C1200.82 630.867 1200.32 630.867 1200.02 631.173Z" fill="#141617"/>
</g>
<path d="M1316.78 640.289L1316.76 639.164L1320.97 634.731C1322.44 633.179 1323.14 632.344 1323.14 631.201C1323.14 629.94 1322.07 629.104 1320.69 629.104C1319.22 629.104 1318.28 630.042 1318.28 631.423H1316.83C1316.81 629.24 1318.5 627.774 1320.74 627.774C1322.97 627.774 1324.57 629.275 1324.57 631.201C1324.57 632.582 1323.92 633.656 1321.74 635.907L1318.91 638.823V638.925H1324.79V640.289H1316.78ZM1331.07 640.46C1328.32 640.46 1326.75 638.158 1326.75 634.117C1326.75 630.11 1328.36 627.774 1331.07 627.774C1333.78 627.774 1335.38 630.11 1335.38 634.117C1335.38 638.158 1333.8 640.46 1331.07 640.46ZM1331.07 639.096C1332.84 639.096 1333.88 637.305 1333.88 634.117C1333.88 630.928 1332.84 629.104 1331.07 629.104C1329.3 629.104 1328.24 630.928 1328.24 634.117C1328.24 637.305 1329.28 639.096 1331.07 639.096ZM1337.43 640.289L1337.41 639.164L1341.62 634.731C1343.09 633.179 1343.79 632.344 1343.79 631.201C1343.79 629.94 1342.71 629.104 1341.33 629.104C1339.87 629.104 1338.93 630.042 1338.93 631.423H1337.48C1337.46 629.24 1339.15 627.774 1341.38 627.774C1343.62 627.774 1345.22 629.275 1345.22 631.201C1345.22 632.582 1344.57 633.656 1342.39 635.907L1339.56 638.823V638.925H1345.44V640.289H1337.43ZM1347.1 637.766V636.504L1352.65 627.945H1354.55V636.419H1356.27V637.766H1354.55V640.289H1353.08V637.766H1347.1ZM1348.75 636.419H1353.08V629.888H1352.93L1348.75 636.316V636.419ZM1363.62 633.452V634.799H1358.21V633.452H1363.62ZM1369.89 640.46C1367.15 640.46 1365.58 638.158 1365.58 634.117C1365.58 630.11 1367.18 627.774 1369.89 627.774C1372.6 627.774 1374.21 630.11 1374.21 634.117C1374.21 638.158 1372.62 640.46 1369.89 640.46ZM1369.89 639.096C1371.67 639.096 1372.71 637.305 1372.71 634.117C1372.71 630.928 1371.67 629.104 1369.89 629.104C1368.12 629.104 1367.06 630.928 1367.06 634.117C1367.06 637.305 1368.1 639.096 1369.89 639.096ZM1376.3 640.289L1381.96 629.394V629.309H1375.43V627.945H1383.55V629.377L1377.91 640.289H1376.3ZM1390.86 633.452V634.799H1385.46V633.452H1390.86ZM1397.14 640.46C1394.39 640.46 1392.82 638.158 1392.82 634.117C1392.82 630.11 1394.43 627.774 1397.14 627.774C1399.85 627.774 1401.45 630.11 1401.45 634.117C1401.45 638.158 1399.87 640.46 1397.14 640.46ZM1397.14 639.096C1398.91 639.096 1399.95 637.305 1399.95 634.117C1399.95 630.928 1398.91 629.104 1397.14 629.104C1395.37 629.104 1394.31 630.928 1394.31 634.117C1394.31 637.305 1395.35 639.096 1397.14 639.096ZM1407.52 640.46C1405.29 640.46 1403.6 639.078 1403.52 637.186H1405C1405.12 638.294 1406.19 639.113 1407.52 639.113C1409.12 639.113 1410.28 637.936 1410.28 636.385C1410.28 634.782 1409.07 633.605 1407.42 633.588C1406.38 633.571 1405.58 633.895 1405.12 634.697H1403.63L1404.5 627.945H1411.19V629.309H1405.78L1405.32 632.923H1405.44C1405.99 632.497 1406.82 632.207 1407.69 632.207C1410.05 632.207 1411.78 633.946 1411.78 636.35C1411.78 638.737 1409.98 640.46 1407.52 640.46Z" fill="#42494C"/>
<mask id="path-56-inside-4_2130_22262" fill="white">
<path d="M185.742 674.195H1447.82V754.01H185.742V674.195Z"/>
</mask>
<path d="M1447.82 752.763H185.742V755.257H1447.82V752.763Z" fill="#D4E3E7" mask="url(#path-56-inside-4_2130_22262)"/>
<g clip-path="url(#clip7_2130_22262)">
<path d="M220.868 705.997H235.417C235.872 705.997 236.249 706.374 236.249 706.829V721.378C236.249 721.833 235.872 722.21 235.417 722.21H220.868C220.413 722.21 220.036 721.833 220.036 721.378V706.829C220.036 706.374 220.413 705.997 220.868 705.997Z" stroke="#C3C8CB" stroke-width="2.49422"/>
</g>
<rect width="79.8149" height="47.3901" transform="translate(275.535 690.406)" fill="url(#pattern2_2130_22262)"/>
<rect x="275.535" y="690.406" width="79.8149" height="47.3901" rx="4.98843" fill="#AFAFAF"/>
<rect x="275.535" y="690.406" width="79.8149" height="47.3901" rx="4.98843" fill="url(#pattern3_2130_22262)"/>
<path d="M376.665 720.102V707.757H384.099V709.121H378.199V713.247H383.536V714.594H378.199V720.102H376.665ZM386.196 720.102V710.843H387.662V720.102H386.196ZM386.929 709.309C386.366 709.309 385.906 708.882 385.906 708.337C385.906 707.791 386.366 707.365 386.929 707.365C387.492 707.365 387.969 707.791 387.969 708.337C387.969 708.882 387.492 709.309 386.929 709.309ZM393.749 723.767C391.516 723.767 389.998 722.796 389.828 721.073H391.362C391.567 722.011 392.436 722.489 393.749 722.489C395.335 722.489 396.307 721.807 396.307 720.272V718.397H396.187C395.88 718.908 395.284 719.965 393.493 719.965C391.243 719.965 389.555 718.26 389.555 715.345C389.555 712.497 391.192 710.724 393.511 710.724C395.301 710.724 395.88 711.815 396.222 712.31H396.341V710.843H397.773V720.357C397.773 722.744 396 723.767 393.749 723.767ZM393.698 718.652C395.386 718.652 396.341 717.442 396.341 715.396C396.341 713.418 395.42 712.037 393.698 712.037C391.925 712.037 391.038 713.537 391.038 715.396C391.038 717.322 391.942 718.652 393.698 718.652ZM400.109 720.102V710.843H401.524V712.293H401.644C402.036 711.304 402.922 710.724 404.133 710.724C405.343 710.724 406.162 711.304 406.605 712.293H406.707C407.185 711.338 408.157 710.724 409.487 710.724C411.141 710.724 412.317 711.73 412.317 713.912V720.102H410.851V713.929C410.851 712.565 409.981 712.037 408.975 712.037C407.679 712.037 406.946 712.906 406.946 714.083V720.102H405.463V713.776C405.463 712.736 404.713 712.037 403.655 712.037C402.547 712.037 401.575 712.975 401.575 714.322V720.102H400.109ZM414.227 717.476C414.227 715.345 416.102 714.867 417.705 714.748C418.293 714.705 419.794 714.628 420.211 714.611V713.861C420.211 712.685 419.512 712.003 418.114 712.003C416.938 712.003 416.239 712.548 416.034 713.247H414.499C414.687 711.764 416.136 710.724 418.182 710.724C419.393 710.724 421.661 711.082 421.661 713.998V720.102H420.211V718.84H420.143C419.836 719.471 418.984 720.323 417.381 720.323C415.625 720.323 414.227 719.283 414.227 717.476ZM415.693 717.544C415.693 718.516 416.511 719.01 417.637 719.01C419.291 719.01 420.211 717.902 420.211 716.743V715.805L417.875 715.975C416.545 716.061 415.693 716.538 415.693 717.544ZM439.666 706.325V710.212H441.933V711.355H439.666V715.276H438.319V706.325H439.666ZM439.666 715.958V719.01H431.158V720.357H440.245V721.312H429.828V718.107H438.336V716.913H429.794V715.958H439.666ZM427.765 713.912C428.975 713.912 430.39 713.912 431.874 713.861V712.923C430.1 712.796 428.975 712.088 428.975 710.928C428.975 709.684 430.373 708.968 432.522 708.968C434.687 708.968 436.068 709.684 436.085 710.928C436.068 712.079 434.977 712.787 433.204 712.923V713.827C434.619 713.759 436.051 713.648 437.381 713.452L437.5 714.356C434.227 714.884 430.578 714.918 427.918 714.918L427.765 713.912ZM436.921 707.484V708.456H428.14V707.484H431.874V706.189H433.204V707.484H436.921ZM432.522 709.854C431.123 709.871 430.254 710.264 430.254 710.928C430.254 711.611 431.123 712.054 432.522 712.054C433.92 712.054 434.806 711.611 434.806 710.928C434.806 710.264 433.92 709.871 432.522 709.854ZM456.733 713.827V714.935H442.922V713.827H446.349V711.696C445.139 711.227 444.457 710.451 444.457 709.428C444.457 707.638 446.503 706.615 449.828 706.615C453.118 706.615 455.181 707.638 455.181 709.428C455.181 710.443 454.508 711.218 453.306 711.679V713.827H456.733ZM449.828 716.095C453.084 716.095 455.028 717.033 455.045 718.772C455.028 720.494 453.084 721.449 449.828 721.449C446.537 721.449 444.593 720.494 444.593 718.772C444.593 717.033 446.537 716.095 449.828 716.095ZM449.828 717.118C447.389 717.135 445.94 717.732 445.957 718.772C445.94 719.795 447.389 720.408 449.828 720.408C452.232 720.408 453.698 719.795 453.698 718.772C453.698 717.732 452.232 717.135 449.828 717.118ZM449.828 707.672C447.355 707.672 445.821 708.337 445.838 709.428C445.821 710.536 447.355 711.184 449.828 711.184C452.283 711.184 453.817 710.536 453.817 709.428C453.817 708.337 452.283 707.672 449.828 707.672ZM447.679 713.827H451.976V712.054C451.337 712.165 450.62 712.224 449.828 712.224C449.035 712.224 448.319 712.165 447.679 712.054V713.827ZM460.109 707.109V709.462H464.337V707.109H465.65V710.059H469.231V706.325H470.578V714.611H469.231V711.184H465.65V714.049H458.779V707.109H460.109ZM460.109 712.957H464.337V710.519H460.109V712.957ZM462.155 715.345V717.203H469.231V715.345H470.561V721.278H460.808V715.345H462.155ZM462.155 720.17H469.231V718.277H462.155V720.17ZM478.421 715.396C478.438 712.173 479.308 709.496 480.876 707.229H482.172C481.013 708.917 479.938 712.361 479.938 715.396C479.938 718.431 481.013 721.892 482.172 723.58H480.876C479.308 721.295 478.438 718.618 478.421 715.396ZM488.344 707.757V720.102H486.793V709.36H486.725L483.724 711.355V709.803L486.793 707.757H488.344ZM494.875 715.396C494.858 718.618 493.988 721.295 492.419 723.58H491.123C492.283 721.892 493.357 718.431 493.357 715.396C493.357 712.361 492.283 708.917 491.123 707.229H492.419C493.988 709.496 494.858 712.173 494.875 715.396ZM507.287 713.264V714.611H501.882V713.264H507.287ZM513.903 720.102L513.886 718.976L518.097 714.543C519.563 712.992 520.262 712.156 520.262 711.014C520.262 709.752 519.188 708.917 517.807 708.917C516.341 708.917 515.403 709.854 515.403 711.235H513.954C513.937 709.053 515.625 707.587 517.858 707.587C520.092 707.587 521.695 709.087 521.695 711.014C521.695 712.395 521.047 713.469 518.864 715.72L516.034 718.635V718.738H521.916V720.102H513.903ZM531.26 708.473C531.243 710.502 533.954 712.224 536.597 712.616L536.102 713.674C533.732 713.273 531.43 712.011 530.51 710.178C529.589 712.011 527.279 713.273 524.951 713.674L524.423 712.616C527.048 712.224 529.759 710.502 529.759 708.473V708.371H524.9V707.28H536.102V708.371H531.26V708.473ZM537.415 714.969V716.078H531.141V721.483H529.828V716.078H523.604V714.969H537.415ZM543.741 711.27C543.741 713.691 545.326 716.18 547.526 717.237L546.742 718.277C545.071 717.459 543.749 715.805 543.127 713.844C542.462 715.95 541.055 717.715 539.325 718.55L538.557 717.51C540.774 716.47 542.428 713.878 542.445 711.27V710.059H538.967V708.968H542.428V706.615H543.775V708.968H547.185V710.059H543.741V711.27ZM550.424 706.325V712.548H552.965V713.691H550.424V721.483H549.095V706.325H550.424Z" fill="#42494C"/>
<path d="M679.593 706.325V710.281H681.877V711.389H679.593V715.43H678.263V706.325H679.593ZM675.467 707.45C675.467 711.304 672.738 714.151 668.322 715.447L667.76 714.356C671.417 713.298 673.753 711.193 674.034 708.559H668.425V707.45H675.467ZM674.802 715.6C677.854 715.6 679.763 716.709 679.763 718.516C679.763 720.357 677.854 721.449 674.802 721.449C671.784 721.449 669.823 720.357 669.84 718.516C669.823 716.709 671.784 715.6 674.802 715.6ZM674.802 716.674C672.585 716.657 671.153 717.374 671.17 718.516C671.153 719.658 672.585 720.374 674.802 720.374C677.035 720.374 678.467 719.658 678.467 718.516C678.467 717.374 677.035 716.657 674.802 716.674ZM687.794 707.433C690.181 707.433 691.869 708.882 691.869 710.997C691.869 713.111 690.181 714.56 687.794 714.56C685.407 714.56 683.685 713.111 683.702 710.997C683.685 708.882 685.407 707.433 687.794 707.433ZM687.794 708.61C686.174 708.61 684.998 709.582 685.015 710.997C684.998 712.412 686.174 713.384 687.794 713.384C689.397 713.384 690.556 712.412 690.556 710.997C690.556 709.582 689.397 708.61 687.794 708.61ZM695.262 706.325V721.517H693.932V706.325H695.262ZM682.917 717.033C685.714 717.033 689.567 717.015 692.926 716.521L693.028 717.51C689.567 718.158 685.833 718.175 683.105 718.175L682.917 717.033ZM703.054 710.98C703.037 713.418 704.793 716.095 706.993 717.135L706.225 718.192C704.52 717.365 703.079 715.558 702.406 713.503C701.707 715.737 700.181 717.697 698.484 718.567L697.666 717.51C699.848 716.453 701.724 713.571 701.741 710.98V709.002H698.212V707.894H706.464V709.002H703.054V710.98ZM709.652 706.325V712.463H712.193V713.605H709.652V721.483H708.322V706.325H709.652ZM726.89 718.482V719.607H713.011V718.482H716.916V715.6H714.75V710.928H723.821V708.559H714.716V707.45H725.134V712.037H716.08V714.492H725.492V715.6H723.122V718.482H726.89ZM718.229 718.482H721.809V715.6H718.229V718.482Z" fill="#42494C"/>
<path d="M875.274 707.314C875.274 711.15 872.461 713.861 867.994 715.055L867.448 713.998C871.199 713.009 873.561 711.005 873.859 708.405H868.25V707.314H875.274ZM879.793 706.342V714.901H878.463V706.342H879.793ZM879.793 715.634V721.278H869.938V715.634H879.793ZM871.251 716.709V720.187H878.48V716.709H871.251ZM888.983 708.081V709.172H884.26V712.088H888.761V713.162H884.26V716.589C886.511 716.581 887.9 716.521 889.563 716.214L889.682 717.322C887.909 717.663 886.442 717.732 883.953 717.732H882.981V708.081H888.983ZM895.36 706.325V721.483H894.064V713.537H891.984V720.715H890.688V706.649H891.984V712.429H894.064V706.325H895.36ZM909.972 706.325V714.083H908.642V706.325H909.972ZM905.436 707.075C905.436 710.946 902.691 713.367 898.207 714.407L897.713 713.281C901.506 712.437 903.731 710.622 903.97 708.183H898.48V707.075H905.436ZM909.972 714.799V718.465H901.481V720.272H910.517V721.346H900.151V717.442H908.642V715.873H900.117V714.799H909.972Z" fill="#42494C"/>
<path d="M1028.08 707.757V720.102H1026.52V709.36H1026.46L1023.45 711.355V709.803L1026.52 707.757H1028.08ZM1043.35 706.325V721.483H1042.01V706.325H1043.35ZM1038.87 707.979C1038.85 712.344 1036.82 716.197 1031.74 718.635L1031.01 717.544C1035.11 715.6 1037.2 712.693 1037.5 709.07H1031.71V707.979H1038.87Z" fill="#42494C"/>
<path d="M1164.72 697.268H1208.37C1217.67 697.268 1225.21 704.806 1225.21 714.104C1225.21 723.402 1217.67 730.94 1208.37 730.94H1164.72C1155.42 730.94 1147.89 723.402 1147.89 714.104C1147.89 704.806 1155.42 697.268 1164.72 697.268Z" fill="white"/>
<path d="M1164.72 697.268H1208.37C1217.67 697.268 1225.21 704.806 1225.21 714.104C1225.21 723.402 1217.67 730.94 1208.37 730.94H1164.72C1155.42 730.94 1147.89 723.402 1147.89 714.104C1147.89 704.806 1155.42 697.268 1164.72 697.268Z" stroke="#D4E3E7" stroke-width="1.24711"/>
<path d="M1166.12 715.452C1168.99 715.466 1170.8 716.373 1170.81 717.936C1170.8 719.471 1168.99 720.392 1166.12 720.392C1163.27 720.392 1161.44 719.471 1161.44 717.936C1161.44 716.373 1163.27 715.466 1166.12 715.452ZM1166.12 716.679C1164.22 716.679 1163.07 717.133 1163.08 717.936C1163.07 718.711 1164.22 719.135 1166.12 719.135C1168.04 719.135 1169.19 718.711 1169.2 717.936C1169.19 717.133 1168.04 716.679 1166.12 716.679ZM1170.72 707.823V708.919C1170.72 709.957 1170.72 711.067 1170.36 712.427L1168.75 712.28C1169.08 710.994 1169.1 710.066 1169.1 709.109H1161.58V707.823H1170.72ZM1172.19 713.187V714.502H1160.2V713.187H1164.85V710.79H1166.46V713.187H1172.19ZM1184.45 707.195V720.406H1182.88V713.625H1181.47V719.792H1179.95V707.545H1181.47V712.31H1182.88V707.195H1184.45ZM1178.82 708.861C1178.82 712.427 1177.7 715.496 1173.94 717.644L1173 716.519C1175.82 714.889 1177.01 712.799 1177.24 710.161H1173.62V708.861H1178.82Z" fill="#141617"/>
<g clip-path="url(#clip8_2130_22262)">
<path d="M1200.02 710.985C1199.71 711.291 1199.71 711.783 1200.02 712.089L1205.2 717.271C1205.44 717.514 1205.84 717.514 1206.08 717.271L1211.26 712.089C1211.57 711.783 1211.57 711.291 1211.26 710.985C1210.96 710.68 1210.46 710.68 1210.16 710.985L1205.64 715.5L1201.12 710.979C1200.82 710.68 1200.32 710.68 1200.02 710.985Z" fill="#141617"/>
</g>
<path d="M1316.78 720.102L1316.76 718.976L1320.97 714.543C1322.44 712.992 1323.14 712.156 1323.14 711.014C1323.14 709.752 1322.07 708.917 1320.69 708.917C1319.22 708.917 1318.28 709.854 1318.28 711.235H1316.83C1316.81 709.053 1318.5 707.587 1320.74 707.587C1322.97 707.587 1324.57 709.087 1324.57 711.014C1324.57 712.395 1323.92 713.469 1321.74 715.72L1318.91 718.635V718.738H1324.79V720.102H1316.78ZM1331.07 720.272C1328.32 720.272 1326.75 717.97 1326.75 713.929C1326.75 709.923 1328.36 707.587 1331.07 707.587C1333.78 707.587 1335.38 709.923 1335.38 713.929C1335.38 717.97 1333.8 720.272 1331.07 720.272ZM1331.07 718.908C1332.84 718.908 1333.88 717.118 1333.88 713.929C1333.88 710.741 1332.84 708.917 1331.07 708.917C1329.3 708.917 1328.24 710.741 1328.24 713.929C1328.24 717.118 1329.28 718.908 1331.07 718.908ZM1337.43 720.102L1337.41 718.976L1341.62 714.543C1343.09 712.992 1343.79 712.156 1343.79 711.014C1343.79 709.752 1342.71 708.917 1341.33 708.917C1339.87 708.917 1338.93 709.854 1338.93 711.235H1337.48C1337.46 709.053 1339.15 707.587 1341.38 707.587C1343.62 707.587 1345.22 709.087 1345.22 711.014C1345.22 712.395 1344.57 713.469 1342.39 715.72L1339.56 718.635V718.738H1345.44V720.102H1337.43ZM1347.1 717.578V716.316L1352.65 707.757H1354.55V716.231H1356.27V717.578H1354.55V720.102H1353.08V717.578H1347.1ZM1348.75 716.231H1353.08V709.701H1352.93L1348.75 716.129V716.231ZM1363.62 713.264V714.611H1358.21V713.264H1363.62ZM1369.89 720.272C1367.15 720.272 1365.58 717.97 1365.58 713.929C1365.58 709.923 1367.18 707.587 1369.89 707.587C1372.6 707.587 1374.21 709.923 1374.21 713.929C1374.21 717.97 1372.62 720.272 1369.89 720.272ZM1369.89 718.908C1371.67 718.908 1372.71 717.118 1372.71 713.929C1372.71 710.741 1371.67 708.917 1369.89 708.917C1368.12 708.917 1367.06 710.741 1367.06 713.929C1367.06 717.118 1368.1 718.908 1369.89 718.908ZM1376.3 720.102L1381.96 709.206V709.121H1375.43V707.757H1383.55V709.189L1377.91 720.102H1376.3ZM1390.86 713.264V714.611H1385.46V713.264H1390.86ZM1397.14 720.272C1394.39 720.272 1392.82 717.97 1392.82 713.929C1392.82 709.923 1394.43 707.587 1397.14 707.587C1399.85 707.587 1401.45 709.923 1401.45 713.929C1401.45 717.97 1399.87 720.272 1397.14 720.272ZM1397.14 718.908C1398.91 718.908 1399.95 717.118 1399.95 713.929C1399.95 710.741 1398.91 708.917 1397.14 708.917C1395.37 708.917 1394.31 710.741 1394.31 713.929C1394.31 717.118 1395.35 718.908 1397.14 718.908ZM1407.52 720.272C1405.29 720.272 1403.6 718.891 1403.52 716.998H1405C1405.12 718.107 1406.19 718.925 1407.52 718.925C1409.12 718.925 1410.28 717.749 1410.28 716.197C1410.28 714.594 1409.07 713.418 1407.42 713.401C1406.38 713.384 1405.58 713.708 1405.12 714.509H1403.63L1404.5 707.757H1411.19V709.121H1405.78L1405.32 712.736H1405.44C1405.99 712.31 1406.82 712.02 1407.69 712.02C1410.05 712.02 1411.78 713.759 1411.78 716.163C1411.78 718.55 1409.98 720.272 1407.52 720.272Z" fill="#42494C"/>
<mask id="path-68-inside-5_2130_22262" fill="white">
<path d="M185.742 754.012H1447.82V833.827H185.742V754.012Z"/>
</mask>
<path d="M1447.82 832.58H185.742V835.074H1447.82V832.58Z" fill="#D4E3E7" mask="url(#path-68-inside-5_2130_22262)"/>
<g clip-path="url(#clip9_2130_22262)">
<path d="M220.868 785.814H235.417C235.872 785.814 236.249 786.19 236.249 786.645V801.195C236.249 801.649 235.872 802.026 235.417 802.026H220.868C220.413 802.026 220.036 801.649 220.036 801.195V786.645C220.036 786.19 220.413 785.814 220.868 785.814Z" stroke="#C3C8CB" stroke-width="2.49422"/>
</g>
<rect width="79.8149" height="47.3901" transform="translate(275.535 770.223)" fill="url(#pattern4_2130_22262)"/>
<rect x="275.535" y="770.223" width="79.8149" height="47.3901" rx="4.98843" fill="#AFAFAF"/>
<rect x="275.535" y="770.223" width="79.8149" height="47.3901" rx="4.98843" fill="url(#pattern5_2130_22262)"/>
<path d="M376.665 799.918V787.574H384.099V788.938H378.199V793.064H383.536V794.411H378.199V799.918H376.665ZM386.196 799.918V790.66H387.662V799.918H386.196ZM386.929 789.125C386.366 789.125 385.906 788.699 385.906 788.153C385.906 787.608 386.366 787.181 386.929 787.181C387.492 787.181 387.969 787.608 387.969 788.153C387.969 788.699 387.492 789.125 386.929 789.125ZM393.749 803.584C391.516 803.584 389.998 802.612 389.828 800.89H391.362C391.567 801.828 392.436 802.305 393.749 802.305C395.335 802.305 396.307 801.623 396.307 800.088V798.213H396.187C395.88 798.724 395.284 799.782 393.493 799.782C391.243 799.782 389.555 798.077 389.555 795.161C389.555 792.314 391.192 790.54 393.511 790.54C395.301 790.54 395.88 791.632 396.222 792.126H396.341V790.66H397.773V800.174C397.773 802.561 396 803.584 393.749 803.584ZM393.698 798.469C395.386 798.469 396.341 797.258 396.341 795.212C396.341 793.234 395.42 791.853 393.698 791.853C391.925 791.853 391.038 793.354 391.038 795.212C391.038 797.139 391.942 798.469 393.698 798.469ZM400.109 799.918V790.66H401.524V792.109H401.644C402.036 791.12 402.922 790.54 404.133 790.54C405.343 790.54 406.162 791.12 406.605 792.109H406.707C407.185 791.154 408.157 790.54 409.487 790.54C411.141 790.54 412.317 791.546 412.317 793.729V799.918H410.851V793.746C410.851 792.382 409.981 791.853 408.975 791.853C407.679 791.853 406.946 792.723 406.946 793.899V799.918H405.463V793.592C405.463 792.552 404.713 791.853 403.655 791.853C402.547 791.853 401.575 792.791 401.575 794.138V799.918H400.109ZM414.227 797.292C414.227 795.161 416.102 794.684 417.705 794.564C418.293 794.522 419.794 794.445 420.211 794.428V793.678C420.211 792.501 419.512 791.819 418.114 791.819C416.938 791.819 416.239 792.365 416.034 793.064H414.499C414.687 791.58 416.136 790.54 418.182 790.54C419.393 790.54 421.661 790.898 421.661 793.814V799.918H420.211V798.656H420.143C419.836 799.287 418.984 800.14 417.381 800.14C415.625 800.14 414.227 799.1 414.227 797.292ZM415.693 797.36C415.693 798.332 416.511 798.827 417.637 798.827C419.291 798.827 420.211 797.718 420.211 796.559V795.621L417.875 795.792C416.545 795.877 415.693 796.354 415.693 797.36ZM439.666 786.141V790.029H441.933V791.171H439.666V795.093H438.319V786.141H439.666ZM439.666 795.775V798.827H431.158V800.174H440.245V801.129H429.828V797.923H438.336V796.73H429.794V795.775H439.666ZM427.765 793.729C428.975 793.729 430.39 793.729 431.874 793.678V792.74C430.1 792.612 428.975 791.904 428.975 790.745C428.975 789.5 430.373 788.784 432.522 788.784C434.687 788.784 436.068 789.5 436.085 790.745C436.068 791.896 434.977 792.603 433.204 792.74V793.643C434.619 793.575 436.051 793.464 437.381 793.268L437.5 794.172C434.227 794.701 430.578 794.735 427.918 794.735L427.765 793.729ZM436.921 787.301V788.273H428.14V787.301H431.874V786.005H433.204V787.301H436.921ZM432.522 789.671C431.123 789.688 430.254 790.08 430.254 790.745C430.254 791.427 431.123 791.87 432.522 791.87C433.92 791.87 434.806 791.427 434.806 790.745C434.806 790.08 433.92 789.688 432.522 789.671ZM456.733 793.643V794.752H442.922V793.643H446.349V791.512C445.139 791.043 444.457 790.267 444.457 789.244C444.457 787.454 446.503 786.431 449.828 786.431C453.118 786.431 455.181 787.454 455.181 789.244C455.181 790.259 454.508 791.035 453.306 791.495V793.643H456.733ZM449.828 795.911C453.084 795.911 455.028 796.849 455.045 798.588C455.028 800.31 453.084 801.265 449.828 801.265C446.537 801.265 444.593 800.31 444.593 798.588C444.593 796.849 446.537 795.911 449.828 795.911ZM449.828 796.934C447.389 796.951 445.94 797.548 445.957 798.588C445.94 799.611 447.389 800.225 449.828 800.225C452.232 800.225 453.698 799.611 453.698 798.588C453.698 797.548 452.232 796.951 449.828 796.934ZM449.828 787.488C447.355 787.488 445.821 788.153 445.838 789.244C445.821 790.353 447.355 791.001 449.828 791.001C452.283 791.001 453.817 790.353 453.817 789.244C453.817 788.153 452.283 787.488 449.828 787.488ZM447.679 793.643H451.976V791.87C451.337 791.981 450.62 792.041 449.828 792.041C449.035 792.041 448.319 791.981 447.679 791.87V793.643ZM460.109 786.926V789.279H464.337V786.926H465.65V789.875H469.231V786.141H470.578V794.428H469.231V791.001H465.65V793.865H458.779V786.926H460.109ZM460.109 792.774H464.337V790.336H460.109V792.774ZM462.155 795.161V797.019H469.231V795.161H470.561V801.094H460.808V795.161H462.155ZM462.155 799.986H469.231V798.094H462.155V799.986ZM478.421 795.212C478.438 791.99 479.308 789.313 480.876 787.045H482.172C481.013 788.733 479.938 792.177 479.938 795.212C479.938 798.247 481.013 801.708 482.172 803.396H480.876C479.308 801.111 478.438 798.435 478.421 795.212ZM488.344 787.574V799.918H486.793V789.176H486.725L483.724 791.171V789.62L486.793 787.574H488.344ZM494.875 795.212C494.858 798.435 493.988 801.111 492.419 803.396H491.123C492.283 801.708 493.357 798.247 493.357 795.212C493.357 792.177 492.283 788.733 491.123 787.045H492.419C493.988 789.313 494.858 791.99 494.875 795.212ZM507.287 793.081V794.428H501.882V793.081H507.287ZM518.268 787.574V799.918H516.716V789.176H516.648L513.647 791.171V789.62L516.716 787.574H518.268ZM528.668 788.29C528.651 790.319 531.362 792.041 534.005 792.433L533.511 793.49C531.141 793.089 528.839 791.828 527.918 789.995C526.997 791.828 524.687 793.089 522.36 793.49L521.831 792.433C524.457 792.041 527.168 790.319 527.168 788.29V788.187H522.308V787.096H533.511V788.187H528.668V788.29ZM534.823 794.786V795.894H528.549V801.299H527.236V795.894H521.013V794.786H534.823ZM541.149 791.086C541.149 793.507 542.735 795.996 544.934 797.054L544.15 798.094C542.479 797.275 541.158 795.621 540.535 793.661C539.87 795.766 538.464 797.531 536.733 798.366L535.966 797.326C538.182 796.286 539.836 793.695 539.853 791.086V789.875H536.375V788.784H539.836V786.431H541.183V788.784H544.593V789.875H541.149V791.086ZM547.833 786.141V792.365H550.373V793.507H547.833V801.299H546.503V786.141H547.833Z" fill="#42494C"/>
<path d="M679.593 786.141V790.097H681.877V791.205H679.593V795.246H678.263V786.141H679.593ZM675.467 787.267C675.467 791.12 672.738 793.967 668.322 795.263L667.76 794.172C671.417 793.115 673.753 791.009 674.034 788.375H668.425V787.267H675.467ZM674.802 795.417C677.854 795.417 679.763 796.525 679.763 798.332C679.763 800.174 677.854 801.265 674.802 801.265C671.784 801.265 669.823 800.174 669.84 798.332C669.823 796.525 671.784 795.417 674.802 795.417ZM674.802 796.491C672.585 796.474 671.153 797.19 671.17 798.332C671.153 799.475 672.585 800.191 674.802 800.191C677.035 800.191 678.467 799.475 678.467 798.332C678.467 797.19 677.035 796.474 674.802 796.491ZM687.794 787.25C690.181 787.25 691.869 788.699 691.869 790.813C691.869 792.927 690.181 794.377 687.794 794.377C685.407 794.377 683.685 792.927 683.702 790.813C683.685 788.699 685.407 787.25 687.794 787.25ZM687.794 788.426C686.174 788.426 684.998 789.398 685.015 790.813C684.998 792.228 686.174 793.2 687.794 793.2C689.397 793.2 690.556 792.228 690.556 790.813C690.556 789.398 689.397 788.426 687.794 788.426ZM695.262 786.141V801.333H693.932V786.141H695.262ZM682.917 796.849C685.714 796.849 689.567 796.832 692.926 796.337L693.028 797.326C689.567 797.974 685.833 797.991 683.105 797.991L682.917 796.849ZM703.054 790.796C703.037 793.234 704.793 795.911 706.993 796.951L706.225 798.008C704.52 797.181 703.079 795.374 702.406 793.32C701.707 795.553 700.181 797.514 698.484 798.383L697.666 797.326C699.848 796.269 701.724 793.388 701.741 790.796V788.818H698.212V787.71H706.464V788.818H703.054V790.796ZM709.652 786.141V792.279H712.193V793.422H709.652V801.299H708.322V786.141H709.652ZM726.89 798.298V799.424H713.011V798.298H716.916V795.417H714.75V790.745H723.821V788.375H714.716V787.267H725.134V791.853H716.08V794.308H725.492V795.417H723.122V798.298H726.89ZM718.229 798.298H721.809V795.417H718.229V798.298Z" fill="#42494C"/>
<path d="M875.274 787.13C875.274 790.967 872.461 793.678 867.994 794.871L867.448 793.814C871.199 792.825 873.561 790.822 873.859 788.221H868.25V787.13H875.274ZM879.793 786.158V794.718H878.463V786.158H879.793ZM879.793 795.451V801.094H869.938V795.451H879.793ZM871.251 796.525V800.003H878.48V796.525H871.251ZM888.983 787.898V788.989H884.26V791.904H888.761V792.978H884.26V796.406C886.511 796.397 887.9 796.337 889.563 796.03L889.682 797.139C887.909 797.48 886.442 797.548 883.953 797.548H882.981V787.898H888.983ZM895.36 786.141V801.299H894.064V793.354H891.984V800.532H890.688V786.465H891.984V792.245H894.064V786.141H895.36ZM909.972 786.141V793.899H908.642V786.141H909.972ZM905.436 786.892C905.436 790.762 902.691 793.183 898.207 794.223L897.713 793.098C901.506 792.254 903.731 790.438 903.97 788H898.48V786.892H905.436ZM909.972 794.615V798.281H901.481V800.088H910.517V801.163H900.151V797.258H908.642V795.689H900.117V794.615H909.972Z" fill="#42494C"/>
<path d="M1028.08 787.574V799.918H1026.52V789.176H1026.46L1023.45 791.171V789.62L1026.52 787.574H1028.08ZM1043.35 786.141V801.299H1042.01V786.141H1043.35ZM1038.87 787.795C1038.85 792.16 1036.82 796.013 1031.74 798.452L1031.01 797.36C1035.11 795.417 1037.2 792.51 1037.5 788.886H1031.71V787.795H1038.87Z" fill="#42494C"/>
<path d="M1164.72 777.084H1208.37C1217.67 777.084 1225.21 784.622 1225.21 793.92C1225.21 803.219 1217.67 810.756 1208.37 810.756H1164.72C1155.42 810.756 1147.89 803.219 1147.89 793.92C1147.89 784.622 1155.42 777.084 1164.72 777.084Z" fill="white"/>
<path d="M1164.72 777.084H1208.37C1217.67 777.084 1225.21 784.622 1225.21 793.92C1225.21 803.219 1217.67 810.756 1208.37 810.756H1164.72C1155.42 810.756 1147.89 803.219 1147.89 793.92C1147.89 784.622 1155.42 777.084 1164.72 777.084Z" stroke="#D4E3E7" stroke-width="1.24711"/>
<path d="M1166.12 795.268C1168.99 795.283 1170.8 796.189 1170.81 797.753C1170.8 799.287 1168.99 800.208 1166.12 800.208C1163.27 800.208 1161.44 799.287 1161.44 797.753C1161.44 796.189 1163.27 795.283 1166.12 795.268ZM1166.12 796.496C1164.22 796.496 1163.07 796.949 1163.08 797.753C1163.07 798.527 1164.22 798.951 1166.12 798.951C1168.04 798.951 1169.19 798.527 1169.2 797.753C1169.19 796.949 1168.04 796.496 1166.12 796.496ZM1170.72 787.639V788.736C1170.72 789.773 1170.72 790.884 1170.36 792.243L1168.75 792.097C1169.08 790.811 1169.1 789.883 1169.1 788.926H1161.58V787.639H1170.72ZM1172.19 793.003V794.318H1160.2V793.003H1164.85V790.606H1166.46V793.003H1172.19ZM1184.45 787.011V800.223H1182.88V793.441H1181.47V799.609H1179.95V787.362H1181.47V792.126H1182.88V787.011H1184.45ZM1178.82 788.677C1178.82 792.243 1177.7 795.312 1173.94 797.46L1173 796.335C1175.82 794.706 1177.01 792.616 1177.24 789.978H1173.62V788.677H1178.82Z" fill="#141617"/>
<g clip-path="url(#clip10_2130_22262)">
<path d="M1200.02 790.802C1199.71 791.107 1199.71 791.6 1200.02 791.905L1205.2 797.087C1205.44 797.33 1205.84 797.33 1206.08 797.087L1211.26 791.905C1211.57 791.6 1211.57 791.107 1211.26 790.802C1210.96 790.496 1210.46 790.496 1210.16 790.802L1205.64 795.316L1201.12 790.795C1200.82 790.496 1200.32 790.496 1200.02 790.802Z" fill="#141617"/>
</g>
<path d="M1316.78 799.918L1316.76 798.793L1320.97 794.36C1322.44 792.808 1323.14 791.973 1323.14 790.83C1323.14 789.568 1322.07 788.733 1320.69 788.733C1319.22 788.733 1318.28 789.671 1318.28 791.052H1316.83C1316.81 788.869 1318.5 787.403 1320.74 787.403C1322.97 787.403 1324.57 788.903 1324.57 790.83C1324.57 792.211 1323.92 793.285 1321.74 795.536L1318.91 798.452V798.554H1324.79V799.918H1316.78ZM1331.07 800.088C1328.32 800.088 1326.75 797.787 1326.75 793.746C1326.75 789.739 1328.36 787.403 1331.07 787.403C1333.78 787.403 1335.38 789.739 1335.38 793.746C1335.38 797.787 1333.8 800.088 1331.07 800.088ZM1331.07 798.724C1332.84 798.724 1333.88 796.934 1333.88 793.746C1333.88 790.557 1332.84 788.733 1331.07 788.733C1329.3 788.733 1328.24 790.557 1328.24 793.746C1328.24 796.934 1329.28 798.724 1331.07 798.724ZM1337.43 799.918L1337.41 798.793L1341.62 794.36C1343.09 792.808 1343.79 791.973 1343.79 790.83C1343.79 789.568 1342.71 788.733 1341.33 788.733C1339.87 788.733 1338.93 789.671 1338.93 791.052H1337.48C1337.46 788.869 1339.15 787.403 1341.38 787.403C1343.62 787.403 1345.22 788.903 1345.22 790.83C1345.22 792.211 1344.57 793.285 1342.39 795.536L1339.56 798.452V798.554H1345.44V799.918H1337.43ZM1347.1 797.395V796.133L1352.65 787.574H1354.55V796.048H1356.27V797.395H1354.55V799.918H1353.08V797.395H1347.1ZM1348.75 796.048H1353.08V789.517H1352.93L1348.75 795.945V796.048ZM1363.62 793.081V794.428H1358.21V793.081H1363.62ZM1369.89 800.088C1367.15 800.088 1365.58 797.787 1365.58 793.746C1365.58 789.739 1367.18 787.403 1369.89 787.403C1372.6 787.403 1374.21 789.739 1374.21 793.746C1374.21 797.787 1372.62 800.088 1369.89 800.088ZM1369.89 798.724C1371.67 798.724 1372.71 796.934 1372.71 793.746C1372.71 790.557 1371.67 788.733 1369.89 788.733C1368.12 788.733 1367.06 790.557 1367.06 793.746C1367.06 796.934 1368.1 798.724 1369.89 798.724ZM1376.3 799.918L1381.96 789.023V788.938H1375.43V787.574H1383.55V789.006L1377.91 799.918H1376.3ZM1390.86 793.081V794.428H1385.46V793.081H1390.86ZM1397.14 800.088C1394.39 800.088 1392.82 797.787 1392.82 793.746C1392.82 789.739 1394.43 787.403 1397.14 787.403C1399.85 787.403 1401.45 789.739 1401.45 793.746C1401.45 797.787 1399.87 800.088 1397.14 800.088ZM1397.14 798.724C1398.91 798.724 1399.95 796.934 1399.95 793.746C1399.95 790.557 1398.91 788.733 1397.14 788.733C1395.37 788.733 1394.31 790.557 1394.31 793.746C1394.31 796.934 1395.35 798.724 1397.14 798.724ZM1407.52 800.088C1405.29 800.088 1403.6 798.707 1403.52 796.815H1405C1405.12 797.923 1406.19 798.741 1407.52 798.741C1409.12 798.741 1410.28 797.565 1410.28 796.013C1410.28 794.411 1409.07 793.234 1407.42 793.217C1406.38 793.2 1405.58 793.524 1405.12 794.325H1403.63L1404.5 787.574H1411.19V788.938H1405.78L1405.32 792.552H1405.44C1405.99 792.126 1406.82 791.836 1407.69 791.836C1410.05 791.836 1411.78 793.575 1411.78 795.979C1411.78 798.366 1409.98 800.088 1407.52 800.088Z" fill="#42494C"/>
<mask id="path-80-inside-6_2130_22262" fill="white">
<path d="M185.742 833.824H1447.82V913.639H185.742V833.824Z"/>
</mask>
<path d="M1447.82 912.392H185.742V914.886H1447.82V912.392Z" fill="#D4E3E7" mask="url(#path-80-inside-6_2130_22262)"/>
<g clip-path="url(#clip11_2130_22262)">
<path d="M220.868 865.626H235.417C235.872 865.626 236.249 866.003 236.249 866.457V881.007C236.249 881.461 235.872 881.838 235.417 881.838H220.868C220.413 881.838 220.036 881.461 220.036 881.007V866.457C220.036 866.003 220.413 865.626 220.868 865.626Z" stroke="#C3C8CB" stroke-width="2.49422"/>
</g>
<rect width="79.8149" height="47.3901" transform="translate(275.535 850.035)" fill="url(#pattern6_2130_22262)"/>
<rect x="275.535" y="850.035" width="79.8149" height="47.3901" rx="4.98843" fill="#AFAFAF"/>
<rect x="275.535" y="850.035" width="79.8149" height="47.3901" rx="4.98843" fill="url(#pattern7_2130_22262)"/>
<path d="M384.747 867.386H386.281V875.553C386.281 878.094 384.389 879.952 381.473 879.952C378.557 879.952 376.665 878.094 376.665 875.553V867.386H378.199V875.434C378.199 877.224 379.444 878.52 381.473 878.52C383.519 878.52 384.747 877.224 384.747 875.434V867.386ZM389.794 867.386L392.931 872.484H393.033L396.187 867.386H397.995L394.124 873.558L397.995 879.73H396.187L393.033 874.735H392.931L389.776 879.73H387.969L391.942 873.558L387.969 867.386H389.794ZM407.782 867.386H409.316V875.553C409.316 878.094 407.424 879.952 404.508 879.952C401.592 879.952 399.7 878.094 399.7 875.553V867.386H401.234V875.434C401.234 877.224 402.479 878.52 404.508 878.52C406.554 878.52 407.782 877.224 407.782 875.434V867.386ZM413.579 867.386V879.73H412.044V867.386H413.579ZM432.436 865.954V881.146H431.089V865.954H432.436ZM428.14 867.403V868.528H422.274V876.218C425.224 876.218 427.168 876.124 429.435 875.724L429.572 876.849C427.219 877.275 425.224 877.36 422.155 877.378H420.927V867.403H428.14ZM440.16 870.609C440.143 873.047 441.899 875.724 444.099 876.764L443.331 877.821C441.626 876.994 440.186 875.187 439.512 873.132C438.813 875.366 437.287 877.326 435.591 878.196L434.772 877.139C436.955 876.082 438.83 873.2 438.847 870.609V868.631H435.318V867.522H443.57V868.631H440.16V870.609ZM446.759 865.954V872.092H449.299V873.234H446.759V881.112H445.429V865.954H446.759ZM462.632 865.971V877.054H461.303V865.971H462.632ZM463.11 879.662V880.788H452.846V875.928H454.175V879.662H463.11ZM454.448 867.028C456.716 867.028 458.421 868.563 458.421 870.745C458.421 872.961 456.716 874.479 454.448 874.479C452.181 874.479 450.476 872.961 450.476 870.745C450.476 868.563 452.181 867.028 454.448 867.028ZM454.448 868.204C452.914 868.204 451.771 869.262 451.788 870.745C451.771 872.262 452.914 873.303 454.448 873.303C455.949 873.303 457.108 872.262 457.108 870.745C457.108 869.262 455.949 868.204 454.448 868.204ZM482.104 865.954V874.087H480.774V865.954H482.104ZM473.613 874.854V876.696H480.774V874.854H482.104V880.907H472.283V874.854H473.613ZM473.613 879.816H480.774V877.77H473.613V879.816ZM473.92 866.704C476.222 866.687 477.892 868.102 477.892 870.182C477.892 872.245 476.222 873.661 473.92 873.661C471.618 873.661 469.947 872.245 469.947 870.182C469.947 868.102 471.618 866.687 473.92 866.704ZM473.92 867.829C472.368 867.812 471.243 868.801 471.26 870.182C471.243 871.563 472.368 872.552 473.92 872.552C475.454 872.552 476.58 871.563 476.58 870.182C476.58 868.801 475.454 867.812 473.92 867.829ZM498.54 873.712V874.82H492.368V877.923H491.038V874.82H484.661V873.712H498.54ZM496.733 866.704V871.973H486.469V866.704H496.733ZM487.782 867.761V870.898H495.403V867.761H487.782ZM496.989 879.662V880.788H486.435V876.423H487.782V879.662H496.989ZM510.015 872.893V874.24H504.61V872.893H510.015ZM520.893 879.901C518.438 879.901 516.682 878.588 516.597 876.627H518.148C518.233 877.804 519.41 878.537 520.876 878.537C522.496 878.537 523.69 877.65 523.69 876.372C523.69 875.025 522.615 874.07 520.689 874.07H519.683V872.723H520.689C522.189 872.723 523.229 871.887 523.229 870.609C523.229 869.381 522.326 868.545 520.927 868.545C519.615 868.545 518.404 869.279 518.336 870.489H516.852C516.938 868.528 518.745 867.216 520.944 867.216C523.297 867.216 524.73 868.75 524.713 870.523C524.73 871.921 523.911 872.961 522.615 873.32V873.405C524.218 873.661 525.207 874.803 525.19 876.372C525.207 878.401 523.349 879.901 520.893 879.901ZM534.517 868.102C534.499 870.131 537.21 871.853 539.853 872.245L539.359 873.303C536.989 872.902 534.687 871.64 533.766 869.807C532.846 871.64 530.535 872.902 528.208 873.303L527.679 872.245C530.305 871.853 533.016 870.131 533.016 868.102V868H528.157V866.909H539.359V868H534.517V868.102ZM540.672 874.598V875.707H534.397V881.112H533.084V875.707H526.861V874.598H540.672ZM546.997 870.898C546.997 873.32 548.583 875.809 550.783 876.866L549.998 877.906C548.327 877.088 547.006 875.434 546.384 873.473C545.719 875.579 544.312 877.343 542.581 878.179L541.814 877.139C544.031 876.099 545.684 873.507 545.702 870.898V869.688H542.223V868.597H545.684V866.244H547.031V868.597H550.442V869.688H546.997V870.898ZM553.681 865.954V872.177H556.222V873.32H553.681V881.112H552.351V865.954H553.681Z" fill="#42494C"/>
<path d="M679.593 865.954V869.909H681.877V871.018H679.593V875.059H678.263V865.954H679.593ZM675.467 867.079C675.467 870.933 672.738 873.78 668.322 875.076L667.76 873.985C671.417 872.927 673.753 870.822 674.034 868.187H668.425V867.079H675.467ZM674.802 875.229C677.854 875.229 679.763 876.337 679.763 878.145C679.763 879.986 677.854 881.077 674.802 881.077C671.784 881.077 669.823 879.986 669.84 878.145C669.823 876.337 671.784 875.229 674.802 875.229ZM674.802 876.303C672.585 876.286 671.153 877.002 671.17 878.145C671.153 879.287 672.585 880.003 674.802 880.003C677.035 880.003 678.467 879.287 678.467 878.145C678.467 877.002 677.035 876.286 674.802 876.303ZM687.794 867.062C690.181 867.062 691.869 868.511 691.869 870.626C691.869 872.74 690.181 874.189 687.794 874.189C685.407 874.189 683.685 872.74 683.702 870.626C683.685 868.511 685.407 867.062 687.794 867.062ZM687.794 868.239C686.174 868.239 684.998 869.21 685.015 870.626C684.998 872.041 686.174 873.013 687.794 873.013C689.397 873.013 690.556 872.041 690.556 870.626C690.556 869.21 689.397 868.239 687.794 868.239ZM695.262 865.954V881.146H693.932V865.954H695.262ZM682.917 876.661C685.714 876.661 689.567 876.644 692.926 876.15L693.028 877.139C689.567 877.787 685.833 877.804 683.105 877.804L682.917 876.661ZM703.054 870.609C703.037 873.047 704.793 875.724 706.993 876.764L706.225 877.821C704.52 876.994 703.079 875.187 702.406 873.132C701.707 875.366 700.181 877.326 698.484 878.196L697.666 877.139C699.848 876.082 701.724 873.2 701.741 870.609V868.631H698.212V867.522H706.464V868.631H703.054V870.609ZM709.652 865.954V872.092H712.193V873.234H709.652V881.112H708.322V865.954H709.652ZM726.89 878.111V879.236H713.011V878.111H716.916V875.229H714.75V870.557H723.821V868.187H714.716V867.079H725.134V871.666H716.08V874.121H725.492V875.229H723.122V878.111H726.89ZM718.229 878.111H721.809V875.229H718.229V878.111Z" fill="#42494C"/>
<path d="M879.128 865.954V869.909H881.413V871.018H879.128V875.127H877.798V865.954H879.128ZM879.128 875.928V881.112H877.798V877.019H869.205V875.928H879.128ZM869.239 866.909V869.296H873.655V866.909H874.985V874.07H867.926V866.909H869.239ZM869.239 872.979H873.655V870.37H869.239V872.979ZM887.823 869.21C887.823 871.256 889.443 873.098 891.711 873.814L891.029 874.888C889.264 874.291 887.858 873.047 887.176 871.444C886.511 873.175 885.087 874.539 883.288 875.195L882.589 874.121C884.857 873.32 886.477 871.359 886.477 869.21V868.324H882.93V867.233H891.319V868.324H887.823V869.21ZM894.882 865.971V877.088H893.552V865.971H894.882ZM895.36 879.662V880.788H885.095V876.031H886.425V879.662H895.36ZM909.887 865.954V881.112H908.557V865.954H909.887ZM897.542 876.968C900.441 876.968 904.243 876.951 907.551 876.542L907.653 877.531C904.243 878.094 900.577 878.128 897.747 878.111L897.542 876.968ZM907.159 868.017V869.108H897.866V868.017H901.839V866.124H903.203V868.017H907.159ZM902.521 869.944C904.686 869.944 906.153 871.069 906.17 872.808C906.153 874.513 904.686 875.655 902.521 875.638C900.373 875.655 898.889 874.513 898.906 872.808C898.889 871.069 900.373 869.944 902.521 869.944ZM902.521 871.001C901.123 871.001 900.151 871.734 900.151 872.808C900.151 873.865 901.123 874.598 902.521 874.598C903.919 874.598 904.891 873.865 904.891 872.808C904.891 871.734 903.919 871.001 902.521 871.001Z" fill="#42494C"/>
<path d="M1028.08 867.386V879.73H1026.52V868.989H1026.46L1023.45 870.984V869.432L1026.52 867.386H1028.08ZM1043.35 865.954V881.112H1042.01V865.954H1043.35ZM1038.87 867.608C1038.85 871.973 1036.82 875.826 1031.74 878.264L1031.01 877.173C1035.11 875.229 1037.2 872.322 1037.5 868.699H1031.71V867.608H1038.87Z" fill="#42494C"/>
<path d="M1164.72 856.897H1208.37C1217.67 856.897 1225.21 864.435 1225.21 873.733C1225.21 883.031 1217.67 890.569 1208.37 890.569H1164.72C1155.42 890.569 1147.89 883.031 1147.89 873.733C1147.89 864.435 1155.42 856.897 1164.72 856.897Z" fill="white"/>
<path d="M1164.72 856.897H1208.37C1217.67 856.897 1225.21 864.435 1225.21 873.733C1225.21 883.031 1217.67 890.569 1208.37 890.569H1164.72C1155.42 890.569 1147.89 883.031 1147.89 873.733C1147.89 864.435 1155.42 856.897 1164.72 856.897Z" stroke="#D4E3E7" stroke-width="1.24711"/>
<path d="M1166.12 875.081C1168.99 875.095 1170.8 876.001 1170.81 877.565C1170.8 879.1 1168.99 880.02 1166.12 880.02C1163.27 880.02 1161.44 879.1 1161.44 877.565C1161.44 876.001 1163.27 875.095 1166.12 875.081ZM1166.12 876.308C1164.22 876.308 1163.07 876.761 1163.08 877.565C1163.07 878.34 1164.22 878.764 1166.12 878.764C1168.04 878.764 1169.19 878.34 1169.2 877.565C1169.19 876.761 1168.04 876.308 1166.12 876.308ZM1170.72 867.452V868.548C1170.72 869.586 1170.72 870.696 1170.36 872.056L1168.75 871.909C1169.08 870.623 1169.1 869.695 1169.1 868.738H1161.58V867.452H1170.72ZM1172.19 872.815V874.131H1160.2V872.815H1164.85V870.419H1166.46V872.815H1172.19ZM1184.45 866.824V880.035H1182.88V873.254H1181.47V879.421H1179.95V867.174H1181.47V871.939H1182.88V866.824H1184.45ZM1178.82 868.49C1178.82 872.056 1177.7 875.125 1173.94 877.273L1173 876.148C1175.82 874.518 1177.01 872.428 1177.24 869.79H1173.62V868.49H1178.82Z" fill="#141617"/>
<g clip-path="url(#clip12_2130_22262)">
<path d="M1200.02 870.614C1199.71 870.92 1199.71 871.412 1200.02 871.718L1205.2 876.9C1205.44 877.143 1205.84 877.143 1206.08 876.9L1211.26 871.718C1211.57 871.412 1211.57 870.92 1211.26 870.614C1210.96 870.309 1210.46 870.309 1210.16 870.614L1205.64 875.129L1201.12 870.608C1200.82 870.309 1200.32 870.309 1200.02 870.614Z" fill="#141617"/>
</g>
<path d="M1316.78 879.73L1316.76 878.605L1320.97 874.172C1322.44 872.62 1323.14 871.785 1323.14 870.643C1323.14 869.381 1322.07 868.545 1320.69 868.545C1319.22 868.545 1318.28 869.483 1318.28 870.864H1316.83C1316.81 868.682 1318.5 867.216 1320.74 867.216C1322.97 867.216 1324.57 868.716 1324.57 870.643C1324.57 872.024 1323.92 873.098 1321.74 875.349L1318.91 878.264V878.366H1324.79V879.73H1316.78ZM1331.07 879.901C1328.32 879.901 1326.75 877.599 1326.75 873.558C1326.75 869.551 1328.36 867.216 1331.07 867.216C1333.78 867.216 1335.38 869.551 1335.38 873.558C1335.38 877.599 1333.8 879.901 1331.07 879.901ZM1331.07 878.537C1332.84 878.537 1333.88 876.747 1333.88 873.558C1333.88 870.37 1332.84 868.545 1331.07 868.545C1329.3 868.545 1328.24 870.37 1328.24 873.558C1328.24 876.747 1329.28 878.537 1331.07 878.537ZM1337.43 879.73L1337.41 878.605L1341.62 874.172C1343.09 872.62 1343.79 871.785 1343.79 870.643C1343.79 869.381 1342.71 868.545 1341.33 868.545C1339.87 868.545 1338.93 869.483 1338.93 870.864H1337.48C1337.46 868.682 1339.15 867.216 1341.38 867.216C1343.62 867.216 1345.22 868.716 1345.22 870.643C1345.22 872.024 1344.57 873.098 1342.39 875.349L1339.56 878.264V878.366H1345.44V879.73H1337.43ZM1347.1 877.207V875.945L1352.65 867.386H1354.55V875.86H1356.27V877.207H1354.55V879.73H1353.08V877.207H1347.1ZM1348.75 875.86H1353.08V869.33H1352.93L1348.75 875.758V875.86ZM1363.62 872.893V874.24H1358.21V872.893H1363.62ZM1369.89 879.901C1367.15 879.901 1365.58 877.599 1365.58 873.558C1365.58 869.551 1367.18 867.216 1369.89 867.216C1372.6 867.216 1374.21 869.551 1374.21 873.558C1374.21 877.599 1372.62 879.901 1369.89 879.901ZM1369.89 878.537C1371.67 878.537 1372.71 876.747 1372.71 873.558C1372.71 870.37 1371.67 868.545 1369.89 868.545C1368.12 868.545 1367.06 870.37 1367.06 873.558C1367.06 876.747 1368.1 878.537 1369.89 878.537ZM1376.3 879.73L1381.96 868.835V868.75H1375.43V867.386H1383.55V868.818L1377.91 879.73H1376.3ZM1390.86 872.893V874.24H1385.46V872.893H1390.86ZM1397.14 879.901C1394.39 879.901 1392.82 877.599 1392.82 873.558C1392.82 869.551 1394.43 867.216 1397.14 867.216C1399.85 867.216 1401.45 869.551 1401.45 873.558C1401.45 877.599 1399.87 879.901 1397.14 879.901ZM1397.14 878.537C1398.91 878.537 1399.95 876.747 1399.95 873.558C1399.95 870.37 1398.91 868.545 1397.14 868.545C1395.37 868.545 1394.31 870.37 1394.31 873.558C1394.31 876.747 1395.35 878.537 1397.14 878.537ZM1407.52 879.901C1405.29 879.901 1403.6 878.52 1403.52 876.627H1405C1405.12 877.736 1406.19 878.554 1407.52 878.554C1409.12 878.554 1410.28 877.378 1410.28 875.826C1410.28 874.223 1409.07 873.047 1407.42 873.03C1406.38 873.013 1405.58 873.337 1405.12 874.138H1403.63L1404.5 867.386H1411.19V868.75H1405.78L1405.32 872.365H1405.44C1405.99 871.938 1406.82 871.649 1407.69 871.649C1410.05 871.649 1411.78 873.388 1411.78 875.792C1411.78 878.179 1409.98 879.901 1407.52 879.901Z" fill="#42494C"/>
<mask id="path-92-inside-7_2130_22262" fill="white">
<path d="M185.742 913.641H1447.82V993.456H185.742V913.641Z"/>
</mask>
</mask>
</g>
</g>
</g>
</g>
</g>
</g>
<defs>
<feFlood flood-opacity="0" result="BackgroundImageFix"/>
<feColorMatrix in="SourceAlpha" type="matrix" values="0 0 0 0 0 0 0 0 0 0 0 0 0 0 0 0 0 0 127 0" result="hardAlpha"/>
<feComposite in2="hardAlpha" operator="out"/>
</filter>
</pattern>
</pattern>
</pattern>
</pattern>
</pattern>
</pattern>
</pattern>
</pattern>
</pattern>
</clipPath>
</clipPath>
</clipPath>
</clipPath>
</defs>
</svg>
