<svg width="24" height="24" viewBox="0 0 24 24" fill="none" xmlns="http://www.w3.org/2000/svg">
<g id="Check">
<path id="Vector" d="M9.54866 17.5754C9.41532 17.5754 9.29032 17.5544 9.17366 17.5124C9.05699 17.4711 8.94866 17.4004 8.84866 17.3004L4.54866 13.0004C4.36532 12.8171 4.27766 12.5794 4.28566 12.2874C4.29432 11.9961 4.39032 11.7587 4.57366 11.5754C4.75699 11.3921 4.99032 11.3004 5.27366 11.3004C5.55699 11.3004 5.79032 11.3921 5.97366 11.5754L9.54866 15.1504L18.0237 6.67539C18.207 6.49206 18.4447 6.40039 18.7367 6.40039C19.028 6.40039 19.2653 6.49206 19.4487 6.67539C19.632 6.85872 19.7237 7.09606 19.7237 7.38739C19.7237 7.67939 19.632 7.91706 19.4487 8.10039L10.2487 17.3004C10.1487 17.4004 10.0403 17.4711 9.92366 17.5124C9.80699 17.5544 9.68199 17.5754 9.54866 17.5754Z" fill="#E8344E"/>
</g>
</svg>
