<svg width="16" height="16" viewBox="0 0 16 16" fill="none" xmlns="http://www.w3.org/2000/svg">
<rect width="15.9866" height="16" rx="7.99329" fill="white"/>
<path d="M11.7537 4.23692C11.195 3.67318 10.5168 3.24215 9.7692 2.97564C9.0216 2.70914 8.22368 2.61397 7.43437 2.69716C4.98809 2.94379 2.97508 4.93014 2.70179 7.37642C2.33518 10.6092 4.83478 13.3355 7.98762 13.3355C8.9942 13.3355 9.98011 13.0499 10.8308 12.5118C11.6815 11.9738 12.3621 11.2054 12.7935 10.296C13.0068 9.84936 12.6869 9.33611 12.1936 9.33611C11.947 9.33611 11.7137 9.46942 11.607 9.68939C11.22 10.5219 10.5581 11.1958 9.73262 11.5976C8.90712 11.9995 7.96842 12.1047 7.07443 11.8957C5.59466 11.5691 4.40152 10.3626 4.08823 8.88285C3.95654 8.29778 3.95807 7.69059 4.0927 7.1062C4.22732 6.5218 4.49161 5.97514 4.86601 5.50667C5.24041 5.03819 5.71534 4.65987 6.25567 4.3997C6.796 4.13954 7.38791 4.00417 7.98762 4.00362C9.09411 4.00362 10.0806 4.46355 10.8005 5.1901L9.794 6.19661C9.37406 6.61654 9.66735 7.33643 10.2606 7.33643H12.6535C13.0202 7.33643 13.3201 7.03648 13.3201 6.66987V4.27691C13.3201 3.68367 12.6002 3.38372 12.1803 3.80365L11.7537 4.23692Z" fill="#8C969B"/>
</svg>
