<svg width="12" height="12" viewBox="0 0 12 12" fill="none" xmlns="http://www.w3.org/2000/svg">
<path id="Vector" d="M11.3313 11.3343V8.00139H7.9984M0.666016 0.669V4.0019H3.99892M11.29 5.33507C11.1504 4.22681 10.6665 3.19034 9.90633 2.37187C9.14619 1.55341 8.14825 0.994266 7.05332 0.773335C5.95838 0.552403 4.82171 0.680832 3.80367 1.1405C2.78563 1.60017 1.93761 2.36788 1.37926 3.33532M0.707343 6.66823C0.846876 7.77648 1.33085 8.81296 2.091 9.63142C2.85114 10.4499 3.84907 11.009 4.94401 11.23C6.03895 11.4509 7.17562 11.3225 8.19365 10.8628C9.21169 10.4031 10.0597 9.63541 10.6181 8.66797" stroke="#141617" stroke-width="1.33316" stroke-linecap="round" stroke-linejoin="round"/>
</svg>
