<svg width="18" height="18" viewBox="0 0 18 18" fill="none" xmlns="http://www.w3.org/2000/svg">
<path d="M16.5002 16.5002L12.881 12.881M12.881 12.881C13.5001 12.2619 13.9912 11.527 14.3262 10.7181C14.6612 9.90927 14.8337 9.04234 14.8337 8.16684C14.8337 7.29134 14.6612 6.42441 14.3262 5.61555C13.9912 4.80669 13.5001 4.07174 12.881 3.45267C12.2619 2.8336 11.527 2.34252 10.7181 2.00748C9.90927 1.67244 9.04234 1.5 8.16684 1.5C7.29134 1.5 6.42441 1.67244 5.61555 2.00748C4.80669 2.34252 4.07174 2.8336 3.45267 3.45267C2.2024 4.70295 1.5 6.39868 1.5 8.16684C1.5 9.93499 2.2024 11.6307 3.45267 12.881C4.70295 14.1313 6.39868 14.8337 8.16684 14.8337C9.93499 14.8337 11.6307 14.1313 12.881 12.881Z" stroke="#727D83" stroke-width="2.5" stroke-linecap="round" stroke-linejoin="round"/>
</svg>
