<svg width="21" height="20" viewBox="0 0 21 20" fill="none" xmlns="http://www.w3.org/2000/svg">
<g id="iconamoon:search-bold">
<path id="Vector" d="M18.0002 17.5002L14.381 13.881M14.381 13.881C15.0001 13.2619 15.4912 12.527 15.8262 11.7181C16.1612 10.9093 16.3337 10.0423 16.3337 9.16684C16.3337 8.29134 16.1612 7.42441 15.8262 6.61555C15.4912 5.80669 15.0001 5.07174 14.381 4.45267C13.7619 3.8336 13.027 3.34252 12.2181 3.00748C11.4093 2.67244 10.5423 2.5 9.66684 2.5C8.79134 2.5 7.92441 2.67244 7.11555 3.00748C6.30669 3.34252 5.57174 3.8336 4.95267 4.45267C3.7024 5.70295 3 7.39868 3 9.16684C3 10.935 3.7024 12.6307 4.95267 13.881C6.20295 15.1313 7.89868 15.8337 9.66684 15.8337C11.435 15.8337 13.1307 15.1313 14.381 13.881Z" stroke="#E8344E" stroke-width="2.5" stroke-linecap="round" stroke-linejoin="round"/>
</g>
</svg>
