<svg width="12" height="11" viewBox="0 0 12 11" fill="none" xmlns="http://www.w3.org/2000/svg">
<path id="Vector" d="M10.9169 0.593404C10.6127 0.289163 10.1212 0.289163 9.81696 0.593404L6.00223 4.40033L2.18751 0.585603C1.88327 0.281361 1.3918 0.281361 1.08756 0.585603C0.783315 0.889845 0.783315 1.38131 1.08756 1.68555L4.90228 5.50028L1.08756 9.315C0.783315 9.61924 0.783315 10.1107 1.08756 10.415C1.3918 10.7192 1.88327 10.7192 2.18751 10.415L6.00223 6.60023L9.81696 10.415C10.1212 10.7192 10.6127 10.7192 10.9169 10.415C11.2211 10.1107 11.2211 9.61924 10.9169 9.315L7.10218 5.50028L10.9169 1.68555C11.2133 1.38911 11.2133 0.889845 10.9169 0.593404Z" fill="#154A75"/>
</svg>
