<svg width="24" height="24" viewBox="0 0 24 24" fill="none" xmlns="http://www.w3.org/2000/svg">
<path d="M9.54866 17.5734C9.41532 17.5734 9.29032 17.5524 9.17366 17.5104C9.05699 17.4691 8.94866 17.3984 8.84866 17.2984L4.54866 12.9984C4.36532 12.8151 4.27766 12.5774 4.28566 12.2854C4.29432 11.9941 4.39032 11.7568 4.57366 11.5734C4.75699 11.3901 4.99032 11.2984 5.27366 11.2984C5.55699 11.2984 5.79032 11.3901 5.97366 11.5734L9.54866 15.1484L18.0237 6.67344C18.207 6.4901 18.4447 6.39844 18.7367 6.39844C19.028 6.39844 19.2653 6.4901 19.4487 6.67344C19.632 6.85677 19.7237 7.0941 19.7237 7.38544C19.7237 7.67744 19.632 7.9151 19.4487 8.09844L10.2487 17.2984C10.1487 17.3984 10.0403 17.4691 9.92366 17.5104C9.80699 17.5524 9.68199 17.5734 9.54866 17.5734Z" fill="#2581CB"/>
</svg>
